<?xml version="1.0" encoding="UTF-8"?>
<svg width="42px" height="42px" viewBox="0 0 42 42" version="1.1" xmlns="http://www.w3.org/2000/svg" xmlns:xlink="http://www.w3.org/1999/xlink">
    <!-- Generator: Sketch 40.3 (33839) - http://www.bohemiancoding.com/sketch -->
    <title>Group 4</title>
    <desc>Created with Sketch.</desc>
    <defs></defs>
    <g id="service-refinance" stroke="none" stroke-width="1" fill="none" fill-rule="evenodd">
        <g id="service-refinance-desktop" transform="translate(-544.000000, -1610.000000)" stroke="#2D2D2D" stroke-width="2">
            <g id="Оцените-преимущества" transform="translate(95.000000, 1383.000000)">
                <g id="05" transform="translate(430.000000, 208.000000)">
                    <g id="Group-4" transform="translate(20.000000, 20.000000)">
                        <circle id="Oval" cx="20" cy="20" r="20"></circle>
                        <g id="Group-3" transform="translate(13.000000, 8.000000)">
                            <path d="M0.101295131,3.09288204 C0.156587118,1.38473046 1.58722738,0 3.29395149,0 L6.17647059,0 L6.17647059,6.22222222 L0,6.22222222 L0.101295131,3.09288204 Z" id="Rectangle-7"></path>
                            <path d="M0.101295131,20.8706598 C0.156587118,19.1625082 1.58722738,17.7777778 3.29395149,17.7777778 L6.17647059,17.7777778 L6.17647059,24 L-1.13686838e-12,24 L0.101295131,20.8706598 Z" id="Rectangle-7-Copy-4" transform="translate(3.088235, 20.888889) scale(-1, -1) translate(-3.088235, -20.888889) "></path>
                            <path d="M8.92482454,3.09288204 C8.98011653,1.38473046 10.4107568,0 12.1174809,0 L15,0 L15,6.22222222 L8.82352941,6.22222222 L8.92482454,3.09288204 Z" id="Rectangle-7-Copy" transform="translate(11.911765, 3.111111) scale(-1, 1) translate(-11.911765, -3.111111) "></path>
                            <path d="M8.92482454,11.9817709 C8.98011653,10.2736193 10.4107568,8.88888889 12.1174809,8.88888889 L15,8.88888889 L15,15.1111111 L8.82352941,15.1111111 L8.92482454,11.9817709 Z" id="Rectangle-7-Copy-2" transform="translate(11.911765, 12.000000) scale(-1, -1) translate(-11.911765, -12.000000) "></path>
                            <rect id="Rectangle-7-Copy-3" transform="translate(3.088235, 12.000000) scale(-1, -1) translate(-3.088235, -12.000000) " x="-1.13686838e-12" y="8.88888889" width="6.17647059" height="6.22222222"></rect>
                        </g>
                    </g>
                </g>
            </g>
        </g>
    </g>
</svg>