<svg id="SvgjsSvg1000" xmlns="http://www.w3.org/2000/svg" version="1.1" xmlns:xlink="http://www.w3.org/1999/xlink" xmlns:svgjs="http://svgjs.com/svgjs" width="42" height="42" viewBox="0 0 42 42"><title>icon</title><desc>Created with Avocode.</desc><defs id="SvgjsDefs1001"></defs><path id="SvgjsPath1007" d="M115 4394C115 4382.95431 123.95430999999999 4374 135 4374C146.04569 4374 155 4382.95431 155 4394C155 4405.04569 146.04569 4414 135 4414C123.95430999999999 4414 115 4405.04569 115 4394Z " fill-opacity="0" fill="#ffffff" stroke-dashoffset="0" stroke-linejoin="miter" stroke-linecap="butt" stroke-opacity="1" stroke="#2d2d2d" stroke-miterlimit="50" stroke-width="2" transform="matrix(1,0,0,1,-114,-4373)"></path><path id="SvgjsPath1008" d="M135 4383L147 4388H123Z " fill-opacity="0" fill="#ffffff" stroke-dashoffset="0" stroke-linejoin="round" stroke-linecap="round" stroke-opacity="1" stroke="#2d2d2d" stroke-miterlimit="50" stroke-width="2" transform="matrix(1,0,0,1,-114,-4373)"></path><path id="SvgjsPath1009" d="M127 4400V4388H132V4400Z " fill-opacity="0" fill="#ffffff" stroke-dashoffset="0" stroke-linejoin="round" stroke-linecap="round" stroke-opacity="1" stroke="#2d2d2d" stroke-miterlimit="50" stroke-width="2" transform="matrix(1,0,0,1,-114,-4373)"></path><path id="SvgjsPath1010" d="M138 4400V4388H143V4400Z " fill-opacity="0" fill="#ffffff" stroke-dashoffset="0" stroke-linejoin="round" stroke-linecap="round" stroke-opacity="1" stroke="#2d2d2d" stroke-miterlimit="50" stroke-width="2" transform="matrix(1,0,0,1,-114,-4373)"></path><path id="SvgjsPath1011" d="M124 4403V4400H146V4403Z " fill-opacity="0" fill="#ffffff" stroke-dashoffset="0" stroke-linejoin="round" stroke-linecap="round" stroke-opacity="1" stroke="#2d2d2d" stroke-miterlimit="50" stroke-width="2" transform="matrix(1,0,0,1,-114,-4373)"></path></svg>