<?xml version="1.0" encoding="UTF-8"?>
<svg width="72px" height="72px" viewBox="0 0 72 72" version="1.1" xmlns="http://www.w3.org/2000/svg" xmlns:xlink="http://www.w3.org/1999/xlink">
    <!-- Generator: Sketch 40.3 (33839) - http://www.bohemiancoding.com/sketch -->
    <title>icon</title>
    <desc>Created with Sketch.</desc>
    <defs></defs>
    <g id="service-refinance" stroke="none" stroke-width="1" fill="none" fill-rule="evenodd">
        <g id="service-refinance-desktop" transform="translate(-1062.000000, -529.000000)" stroke-width="1.2" stroke="#2D2D2D">
            <g id="MAIN" transform="translate(95.000000, 140.000000)">
                <g id="Преимущества" transform="translate(0.000000, 390.000000)">
                    <g id="04" transform="translate(968.000000, 0.000000)">
                        <g id="icon">
                            <circle cx="35" cy="35" r="35"></circle>
                            <g id="Group-2" transform="translate(17.000000, 18.000000)" stroke-linecap="round" stroke-linejoin="round">
                                <rect id="Rectangle-23" x="0" y="11" width="36" height="23"></rect>
                                <rect id="Rectangle-23-Copy" transform="translate(18.000000, 7.000000) scale(1, -1) translate(-18.000000, -7.000000) " x="0" y="3" width="36" height="8"></rect>
                                <path d="M29,0 L29,6" id="Path-31"></path>
                                <path d="M7,0 L7,6" id="Path-31"></path>
                                <path d="M21.0293079,17 L14.0752787,17 L14.0752787,21.9924483 L18.8911947,21.9924483 C20.5475867,21.9924483 21.8903577,23.3316911 21.8903577,24.996703 L21.8903577,24.825704 C21.8903577,26.4849081 20.5518661,27.8299587 18.884843,27.8299587 L14,27.8299587" id="Path-32"></path>
                            </g>
                        </g>
                    </g>
                </g>
            </g>
        </g>
    </g>
</svg>