<svg id="SvgjsSvg1027" xmlns="http://www.w3.org/2000/svg" version="1.1" xmlns:xlink="http://www.w3.org/1999/xlink" xmlns:svgjs="http://svgjs.com/svgjs" width="42" height="42" viewBox="0 0 42 42"><title>Oval</title><desc>Created with Avocode.</desc><defs id="SvgjsDefs1028"></defs><path id="SvgjsPath1029" d="M115 4597C115 4585.95431 123.95430999999999 4577 135 4577C146.04569 4577 155 4585.95431 155 4597C155 4608.04569 146.04569 4617 135 4617C123.95430999999999 4617 115 4608.04569 115 4597Z " fill-opacity="0" fill="#ffffff" stroke-dashoffset="0" stroke-linejoin="miter" stroke-linecap="butt" stroke-opacity="1" stroke="#2d2d2d" stroke-miterlimit="50" stroke-width="2" transform="matrix(1,0,0,1,-114,-4576)"></path><path id="SvgjsPath1030" d="M123 4590C123 4589.44772 123.44772 4589 124 4589H146C146.55228 4589 147 4589.44772 147 4590V4604C147 4604.55228 146.55228 4605 146 4605H124C123.44772 4605 123 4604.55228 123 4604Z " fill-opacity="0" fill="#ffffff" stroke-dashoffset="0" stroke-linejoin="round" stroke-linecap="round" stroke-opacity="1" stroke="#2d2d2d" stroke-miterlimit="50" stroke-width="2" transform="matrix(1,0,0,1,-114,-4576)"></path><path id="SvgjsPath1031" d="M123 4596V4593H147V4596Z " fill-opacity="0" fill="#ffffff" stroke-dashoffset="0" stroke-linejoin="round" stroke-linecap="round" stroke-opacity="1" stroke="#2d2d2d" stroke-miterlimit="50" stroke-width="2" transform="matrix(1,0,0,1,-114,-4576)"></path><path id="SvgjsPath1032" d="M127 4601H135 " fill-opacity="0" fill="#ffffff" stroke-dashoffset="0" stroke-linejoin="round" stroke-linecap="round" stroke-opacity="1" stroke="#2d2d2d" stroke-miterlimit="50" stroke-width="2" transform="matrix(1,0,0,1,-114,-4576)"></path><path id="SvgjsPath1033" d="M139 4601H143 " fill-opacity="0" fill="#ffffff" stroke-dashoffset="0" stroke-linejoin="round" stroke-linecap="round" stroke-opacity="1" stroke="#2d2d2d" stroke-miterlimit="50" stroke-width="2" transform="matrix(1,0,0,1,-114,-4576)"></path></svg>