<svg id="SvgjsSvg1056" xmlns="http://www.w3.org/2000/svg" version="1.1" xmlns:xlink="http://www.w3.org/1999/xlink" xmlns:svgjs="http://svgjs.com/svgjs" width="42" height="42" viewBox="0 0 42 42"><title>Oval</title><desc>Created with Avocode.</desc><defs id="SvgjsDefs1057"></defs><path id="SvgjsPath1058" d="M545 4800C545 4788.95431 553.95431 4780 565 4780C576.04569 4780 585 4788.95431 585 4800C585 4811.04569 576.04569 4820 565 4820C553.95431 4820 545 4811.04569 545 4800Z " fill-opacity="0" fill="#ffffff" stroke-dashoffset="0" stroke-linejoin="miter" stroke-linecap="butt" stroke-opacity="1" stroke="#2d2d2d" stroke-miterlimit="50" stroke-width="2" transform="matrix(1,0,0,1,-544,-4779)"></path><path id="SvgjsPath1059" d="M570 4804.13V4808.01C570 4810.21 568.21 4812 565.99 4812H564.01C561.8 4812 560 4810.21 560 4808.01V4801.99C560 4799.79 561.8 4798 564 4798H565.99 " fill-opacity="0" fill="#ffffff" stroke-dashoffset="0" stroke-linejoin="round" stroke-linecap="round" stroke-opacity="1" stroke="#2d2d2d" stroke-miterlimit="50" stroke-width="2" transform="matrix(1,0,0,1,-544,-4779)"></path><path id="SvgjsPath1060" d="M560 4796.1V4792C560 4789.79 561.79 4788 564.01 4788H565.99C568.2 4788 570 4789.79 570 4791.99V4798.01C570 4800.21 568.2 4802 566 4802H564.01 " fill-opacity="0" fill="#ffffff" stroke-dashoffset="0" stroke-linejoin="round" stroke-linecap="round" stroke-opacity="1" stroke="#2d2d2d" stroke-miterlimit="50" stroke-width="2" transform="matrix(1,0,0,1,-544,-4779)"></path></svg>