<svg id="SvgjsSvg1012" xmlns="http://www.w3.org/2000/svg" version="1.1" xmlns:xlink="http://www.w3.org/1999/xlink" xmlns:svgjs="http://svgjs.com/svgjs" width="42" height="42" viewBox="0 0 42 42"><title>Oval</title><desc>Created with Avocode.</desc><defs id="SvgjsDefs1013"></defs><path id="SvgjsPath1014" d="M545 4394C545 4382.95431 553.95431 4374 565 4374C576.04569 4374 585 4382.95431 585 4394C585 4405.04569 576.04569 4414 565 4414C553.95431 4414 545 4405.04569 545 4394Z " fill-opacity="0" fill="#ffffff" stroke-dashoffset="0" stroke-linejoin="miter" stroke-linecap="butt" stroke-opacity="1" stroke="#2d2d2d" stroke-miterlimit="50" stroke-width="2" transform="matrix(1,0,0,1,-544,-4373)"></path><path id="SvgjsPath1015" d="M556 4383H567.31L574 4389.78V4405H556Z " fill-opacity="0" fill="#ffffff" stroke-dashoffset="0" stroke-linejoin="round" stroke-linecap="round" stroke-opacity="1" stroke="#2d2d2d" stroke-miterlimit="50" stroke-width="2" transform="matrix(1,0,0,1,-544,-4373)"></path><path id="SvgjsPath1016" d="M573 4390H567V4384V4384 " fill-opacity="0" fill="#ffffff" stroke-dashoffset="0" stroke-linejoin="round" stroke-linecap="round" stroke-opacity="1" stroke="#2d2d2d" stroke-miterlimit="50" stroke-width="2" transform="matrix(1,0,0,1,-544,-4373)"></path><path id="SvgjsPath1017" d="M560 4395H570 " fill-opacity="0" fill="#ffffff" stroke-dashoffset="0" stroke-linejoin="round" stroke-linecap="round" stroke-opacity="1" stroke="#2d2d2d" stroke-miterlimit="50" stroke-width="2" transform="matrix(1,0,0,1,-544,-4373)"></path><path id="SvgjsPath1018" d="M560 4399H570 " fill-opacity="0" fill="#ffffff" stroke-dashoffset="0" stroke-linejoin="round" stroke-linecap="round" stroke-opacity="1" stroke="#2d2d2d" stroke-miterlimit="50" stroke-width="2" transform="matrix(1,0,0,1,-544,-4373)"></path></svg>