<svg id="SvgjsSvg1000" xmlns="http://www.w3.org/2000/svg" version="1.1" xmlns:xlink="http://www.w3.org/1999/xlink" xmlns:svgjs="http://svgjs.com/svgjs" width="40" height="41" viewBox="0 0 40 41"><title>fb</title><desc>Created with Avocode.</desc><defs id="SvgjsDefs1001"><linearGradient id="SvgjsLinearGradient1009" gradientUnits="userSpaceOnUse" x1="690" y1="585.99" x2="690" y2="625.99"><stop id="SvgjsStop1010" stop-opacity="0" stop-color="#000000" offset="0"></stop><stop id="SvgjsStop1011" stop-opacity="0.16" stop-color="#000000" offset="1"></stop></linearGradient></defs><path id="SvgjsPath1007" d="M710 585.1L670 584.99V624.99H690V609.87H684.03V603.21H690V600.61C690 596.13 693.36 592.1 697.5 592.1H702.89V598.76H697.5C696.91 598.76 696.22 599.48 696.22 600.55V603.2099999999999H702.89V609.8699999999999H696.22V624.9899999999999H710Z " fill="#4ab9ff" fill-opacity="1" transform="matrix(1,0,0,1,-670,-584)"></path><path id="SvgjsPath1008" d="M710 585.1L670 584.99V624.99H690V609.87H684.03V603.21H690V600.61C690 596.13 693.36 592.1 697.5 592.1H702.89V598.76H697.5C696.91 598.76 696.22 599.48 696.22 600.55V603.2099999999999H702.89V609.8699999999999H696.22V624.9899999999999H710Z " fill="url(#SvgjsLinearGradient1009)" transform="matrix(1,0,0,1,-670,-584)"></path></svg>