<svg id="SvgjsSvg1000" xmlns="http://www.w3.org/2000/svg" version="1.1" xmlns:xlink="http://www.w3.org/1999/xlink" xmlns:svgjs="http://svgjs.com/svgjs" width="180" height="40" viewBox="0 0 180 40"><title>Fill 1</title><desc>Created with Avocode.</desc><defs id="SvgjsDefs1001"></defs><path id="SvgjsPath1007" d="M132.16 39.12C132.1 38.97 132.02 38.97 131.9 39.08C131.04 39.86 130.22 40.67 129.62 41.62C129.08 42.489999999999995 128.83 43.41 129.12 44.379999999999995C129.3 44.97 129.33 44.879999999999995 129.85 44.699999999999996C131.35999999999999 44.199999999999996 132.68 42.83 132.57999999999998 41.11C132.60999999999999 40.44 132.42999999999998 39.769999999999996 132.16 39.12 " fill="#ffffff" fill-opacity="1" transform="matrix(1,0,0,1,-94,-10)"></path><path id="SvgjsPath1008" d="M134.01 41.98C134.07999999999998 41.94 134.14 41.9 134.2 41.86C135.32999999999998 41.11 135.76999999999998 40.089999999999996 135.89999999999998 38.8C135.81999999999996 38.47 135.76 38.01 135.57999999999998 37.589999999999996C135.36999999999998 37.06999999999999 135.04 36.58 134.76 36.089999999999996C134.69 35.959999999999994 134.6 35.98 134.53 36.089999999999996C134.38 36.339999999999996 134.23 36.589999999999996 134.08 36.849999999999994C133.59 37.71999999999999 133.17000000000002 38.599999999999994 133.04000000000002 39.56999999999999C132.92000000000002 40.39999999999999 133.09000000000003 41.169999999999995 133.59000000000003 41.89999999999999C133.73000000000002 42.08999999999999 133.77000000000004 42.099999999999994 134.01000000000002 41.97999999999999 " fill="#ffffff" fill-opacity="1" transform="matrix(1,0,0,1,-94,-10)"></path><path id="SvgjsPath1009" d="M110.77 42.86C110.28 42.57 109.77 42.32 109.28 42.05C109.11 41.959999999999994 109.05 42 109.04 42.15C109.03 42.4 109.01 42.64 109 42.879999999999995C109.01 43.589999999999996 109.12 44.279999999999994 109.47 44.92999999999999C110.16 46.17999999999999 111.36 46.879999999999995 112.92999999999999 47.17999999999999C113.13 47.21999999999999 113.33999999999999 47.24999999999999 113.55 47.25999999999999C113.92 47.26999999999999 113.92 47.25999999999999 113.94 46.959999999999994C113.99 46.06999999999999 113.64 45.28999999999999 113.03 44.589999999999996C112.41 43.879999999999995 111.61 43.349999999999994 110.77 42.86 " fill="#ffffff" fill-opacity="1" transform="matrix(1,0,0,1,-94,-10)"></path><path id="SvgjsPath1010" d="M107.73 44.7C108.26 44.88 108.29 44.970000000000006 108.46000000000001 44.39C108.76 43.410000000000004 108.51 42.49 107.96000000000001 41.62C107.37 40.669999999999995 106.55000000000001 39.86 105.69000000000001 39.08C105.57000000000001 38.97 105.49000000000001 38.97 105.43 39.12C105.16000000000001 39.769999999999996 104.98 40.44 105 41.11C104.91 42.83 106.23 44.2 107.73 44.7 " fill="#ffffff" fill-opacity="1" transform="matrix(1,0,0,1,-94,-10)"></path><path id="SvgjsPath1011" d="M103.7 41.86C103.76 41.9 103.82000000000001 41.94 103.89 41.98C104.13 42.099999999999994 104.17 42.089999999999996 104.31 41.9C104.8 41.18 104.98 40.4 104.86 39.57C104.72 38.6 104.31 37.72 103.82 36.85C103.66999999999999 36.6 103.52 36.34 103.36999999999999 36.09C103.3 35.980000000000004 103.21 35.96 103.13999999999999 36.09C102.85999999999999 36.59 102.52999999999999 37.07 102.30999999999999 37.59C102.12999999999998 38.010000000000005 102.07999999999998 38.470000000000006 101.99999999999999 38.800000000000004C102.12999999999998 40.09 102.56999999999998 41.11000000000001 103.69999999999999 41.86000000000001 " fill="#ffffff" fill-opacity="1" transform="matrix(1,0,0,1,-94,-10)"></path><path id="SvgjsPath1012" d="M121.49 47.3C121.49 47.29 121.49 47.279999999999994 121.49 47.26C121.47999999999999 47.25 121.49 47.23 121.47999999999999 47.21C121.43999999999998 46.03 120.27999999999999 44.99 118.75999999999999 45C118.75999999999999 45 118.74999999999999 45 118.74 45C118.74 45 118.72999999999999 45 118.72 45C117.21 44.99 116.03999999999999 46.03 116 47.21C116 47.230000000000004 116 47.25 116 47.26C116 47.28 116 47.29 116 47.3C116 47.32 116 47.33 116 47.339999999999996C116 47.36 116 47.37 116 47.379999999999995C116 47.48 116.02 47.58 116.03 47.67999999999999C116.04 47.68999999999999 116.04 47.699999999999996 116.04 47.71999999999999C116.05000000000001 47.72999999999999 116.05000000000001 47.74999999999999 116.05000000000001 47.76999999999999C116.22000000000001 48.48999999999999 116.74000000000001 49.069999999999986 117.49000000000001 49.37999999999999C117.88000000000001 49.54999999999999 118.31 49.62999999999999 118.74000000000001 49.61999999999999C119.18 49.62999999999999 119.61000000000001 49.54999999999999 119.99000000000001 49.37999999999999C120.74000000000001 49.069999999999986 121.27000000000001 48.48999999999999 121.43 47.76999999999999C121.44000000000001 47.749999999999986 121.44000000000001 47.72999999999999 121.44000000000001 47.71999999999999C121.45000000000002 47.69999999999999 121.45000000000002 47.68999999999999 121.45000000000002 47.67999999999999C121.47000000000001 47.57999999999999 121.48000000000002 47.47999999999999 121.49000000000002 47.379999999999995C121.49000000000002 47.37 121.49000000000002 47.35999999999999 121.49000000000002 47.339999999999996C121.49000000000002 47.33 121.49000000000002 47.31999999999999 121.49000000000002 47.3 " fill="#ffffff" fill-opacity="1" transform="matrix(1,0,0,1,-94,-10)"></path><path id="SvgjsPath1013" d="M134.39 46.39C134.32999999999998 46.37 134.26999999999998 46.34 134.20999999999998 46.33C133.24999999999997 46.15 132.29 46.01 131.07999999999998 46C130.58999999999997 45.99 129.88 46.09 129.17999999999998 46.25C128.08999999999997 46.5 127.08999999999997 46.92 126.21999999999998 47.54C125.92999999999998 47.74 125.93999999999998 47.75 126.15999999999998 47.99C126.55999999999999 48.42 127.09999999999998 48.68 127.70999999999998 48.830000000000005C128.54999999999998 49.040000000000006 129.37999999999997 49.00000000000001 130.20999999999998 48.790000000000006C131.64 48.45 132.85999999999999 47.790000000000006 133.93999999999997 46.95C134.10999999999996 46.82 134.26999999999998 46.690000000000005 134.42999999999998 46.56C134.52999999999997 46.480000000000004 134.51999999999998 46.42 134.39 46.39 " fill="#ffffff" fill-opacity="1" transform="matrix(1,0,0,1,-94,-10)"></path><path id="SvgjsPath1014" d="M138.01 42C137.32 42.04 136.63 42.07 135.95 42.16C133.95999999999998 42.44 132.38 43.29 131.19 44.66C130.92 44.98 130.92 44.989999999999995 131.31 45.22C131.8 45.5 132.34 45.64 132.98 45.64C133.5 45.660000000000004 134.01999999999998 45.55 134.51999999999998 45.34C136.17 44.660000000000004 137.27999999999997 43.53 138.14999999999998 42.21C138.26999999999998 42.04 138.23999999999998 41.99 138.01 42 " fill="#ffffff" fill-opacity="1" transform="matrix(1,0,0,1,-94,-10)"></path><path id="SvgjsPath1015" d="M127.47 44.93C127.83 44.28 127.94 43.589999999999996 127.95 42.88C127.93 42.64 127.92 42.39 127.91 42.150000000000006C127.89999999999999 42.00000000000001 127.84 41.96000000000001 127.67 42.050000000000004C127.17 42.32000000000001 126.67 42.57000000000001 126.18 42.85C125.34 43.35 124.53 43.88 123.92 44.58C123.3 45.29 122.95 46.07 123 46.96C123.02 47.26 123.03 47.27 123.4 47.25C123.60000000000001 47.25 123.81 47.22 124.01 47.18C125.58 46.88 126.79 46.18 127.47 44.93 " fill="#ffffff" fill-opacity="1" transform="matrix(1,0,0,1,-94,-10)"></path><path id="SvgjsPath1016" d="M140.46 37.03C139.57000000000002 37.27 138.71 37.54 137.92000000000002 37.96C136.53000000000003 38.7 135.63000000000002 39.75 135.06 41.03C134.95 41.28 134.97 41.32 135.28 41.410000000000004C135.58 41.50000000000001 135.9 41.550000000000004 136.18 41.6C136.46 41.56 136.69 41.54 136.93 41.49C137.89000000000001 41.29 138.6 40.77 139.18 40.120000000000005C139.95000000000002 39.260000000000005 140.4 38.260000000000005 140.72 37.220000000000006C140.79 37.00000000000001 140.74 36.96000000000001 140.46 37.03000000000001 " fill="#ffffff" fill-opacity="1" transform="matrix(1,0,0,1,-94,-10)"></path><path id="SvgjsPath1017" d="M142.14 31.23C142.13 30.95 142.11999999999998 30.95 141.82999999999998 31.1C140.44 31.82 139.29999999999998 32.730000000000004 138.63 34.02C138.31 34.660000000000004 138.10999999999999 35.32 138.01999999999998 36C137.98 36.28 137.98999999999998 36.28 138.32 36.34C138.76 36.42 139.18 36.36000000000001 139.57999999999998 36.2C140.51 35.82 141.07999999999998 35.160000000000004 141.46999999999997 34.39C141.92999999999998 33.46 142.07999999999998 32.47 142.13999999999996 31.44C142.13999999999996 31.39 142.13999999999996 31.310000000000002 142.13999999999996 31.23 " fill="#ffffff" fill-opacity="1" transform="matrix(1,0,0,1,-94,-10)"></path><path id="SvgjsPath1018" d="M139.11 31.72C139.12 31.919999999999998 139.26000000000002 31.959999999999997 139.46 31.939999999999998C139.82000000000002 31.909999999999997 140.14000000000001 31.79 140.43 31.619999999999997C141.19 31.159999999999997 141.5 30.49 141.68 29.769999999999996C141.99 28.559999999999995 141.84 27.359999999999996 141.52 26.169999999999995C141.5 26.109999999999996 141.46 26.059999999999995 141.43 25.999999999999993C141.36 26.039999999999992 141.29000000000002 26.05999999999999 141.24 26.109999999999992C139.84 27.41999999999999 139 28.91999999999999 139 30.709999999999994C139.04 31.049999999999994 139.08 31.379999999999995 139.11 31.719999999999995 " fill="#ffffff" fill-opacity="1" transform="matrix(1,0,0,1,-94,-10)"></path><path id="SvgjsPath1019" d="M136.63 37.83C137.46 36.92 137.7 35.879999999999995 137.49 34.769999999999996C137.29000000000002 33.73 136.62 32.87 135.77 32.12C135.57000000000002 31.949999999999996 135.54000000000002 31.949999999999996 135.49 32.18C135.23000000000002 33.11 135.01000000000002 34.05 135 35.01C135.01 35.269999999999996 135.01 35.519999999999996 135.05 35.78C135.16000000000003 36.56 135.48000000000002 37.26 136.13000000000002 37.85C136.38000000000002 38.07 136.40000000000003 38.08 136.63000000000002 37.83 " fill="#ffffff" fill-opacity="1" transform="matrix(1,0,0,1,-94,-10)"></path><path id="SvgjsPath1020" d="M138.03 24.74C138.09 25.5 138.28 26.229999999999997 138.59 26.95C138.71 27.22 138.76 27.23 139.08 27.11C139.51000000000002 26.95 139.81 26.68 140.01000000000002 26.33C140.29000000000002 25.869999999999997 140.4 25.389999999999997 140.4 24.88C140.42000000000002 23.52 139.86 22.299999999999997 139.13 21.11C139.04 20.96 138.99 20.96 138.9 21.13C138.33 22.15 138.01000000000002 23.21 138 24.25C138.01 24.47 138.02 24.61 138.03 24.74 " fill="#ffffff" fill-opacity="1" transform="matrix(1,0,0,1,-94,-10)"></path><path id="SvgjsPath1021" d="M138.57 33.36C138.79 32.9 138.91 32.43 138.89 31.939999999999998C138.88 31.749999999999996 138.88 31.56 138.85 31.369999999999997C138.62 29.919999999999998 137.64 28.879999999999995 136.26 28.08C136.19 28.04 136.10999999999999 28.02 136.04 28C136.03 28.06 136 28.13 136 28.19C136.05 29.12 136.09 30.05 136.3 30.96C136.45000000000002 31.59 136.67000000000002 32.2 137.13000000000002 32.71C137.38000000000002 32.99 137.67000000000002 33.25 137.98000000000002 33.480000000000004C138.35000000000002 33.75000000000001 138.39000000000001 33.720000000000006 138.57000000000002 33.36000000000001 " fill="#ffffff" fill-opacity="1" transform="matrix(1,0,0,1,-94,-10)"></path><path id="SvgjsPath1022" d="M137.8 21.89C137.91000000000003 22.04 138.03 22.060000000000002 138.19 21.95C138.52 21.73 138.7 21.439999999999998 138.81 21.11C138.98 20.599999999999998 138.9 20.09 138.76 19.59C138.35999999999999 18.2 137.39 17.09 136.26999999999998 16.06C136.15999999999997 15.959999999999999 136.10999999999999 15.989999999999998 136.1 16.099999999999998C136.06 16.439999999999998 136.03 16.77 136 17.11C135.99 18.52 136.44 19.82 137.21 21.06C137.39000000000001 21.34 137.61 21.61 137.8 21.889999999999997 " fill="#ffffff" fill-opacity="1" transform="matrix(1,0,0,1,-94,-10)"></path><path id="SvgjsPath1023" d="M131.05 13.28C131.72 15.17 132.93 16.78 134.63000000000002 18.13C135.08 18.48 135.23000000000002 18.45 135.41000000000003 17.95C135.46000000000004 17.81 135.47000000000003 17.66 135.51000000000002 17.43C135.43 17.16 135.35000000000002 16.81 135.20000000000002 16.49C134.41000000000003 14.889999999999999 132.84 13.909999999999998 131.18 13.009999999999998C131.14000000000001 12.989999999999998 131.07 12.999999999999998 131.02 13.009999999999998C131 13.009999999999998 131 13.079999999999998 131 13.119999999999997C131.01 13.169999999999998 131.03 13.229999999999997 131.05 13.279999999999998 " fill="#ffffff" fill-opacity="1" transform="matrix(1,0,0,1,-94,-10)"></path><path id="SvgjsPath1024" d="M138.74 26.46C138.33 24.740000000000002 137.04000000000002 23.67 135.18 23.02C135 22.96 134.98000000000002 23.05 135.01000000000002 23.16C135.09000000000003 23.41 135.19000000000003 23.65 135.27 23.89C135.58 24.77 135.93 25.64 136.46 26.45C136.78 26.939999999999998 137.19 27.37 137.74 27.689999999999998C137.98000000000002 27.83 138.27 27.929999999999996 138.54000000000002 28.04C138.65000000000003 28.08 138.72000000000003 28.05 138.74 27.939999999999998C138.78 27.7 138.82000000000002 27.459999999999997 138.86 27.229999999999997C138.82000000000002 26.959999999999997 138.8 26.709999999999997 138.74 26.459999999999997 " fill="#ffffff" fill-opacity="1" transform="matrix(1,0,0,1,-94,-10)"></path><path id="SvgjsPath1025" d="M125.99 11.8C126.8 12.530000000000001 127.75999999999999 13.09 128.73 13.63C129.17999999999998 13.870000000000001 129.64 14.08 130.1 14.290000000000001C130.38 14.420000000000002 130.46 14.39 130.51999999999998 14.120000000000001C130.54 14.07 130.54 14.020000000000001 130.54999999999998 13.97C130.51999999999998 13.57 130.33999999999997 13.23 130.07 12.92C129.68 12.48 129.22 12.08 128.69 11.75C127.34 10.9 125.78999999999999 10.39 124.17999999999999 10.03C124.11999999999999 10.01 124.05999999999999 10.01 123.99999999999999 10C124.02999999999999 10.05 124.03999999999999 10.12 124.07999999999998 10.16C124.71999999999998 10.71 125.36999999999999 11.24 125.98999999999998 11.8 " fill="#ffffff" fill-opacity="1" transform="matrix(1,0,0,1,-94,-10)"></path><path id="SvgjsPath1026" d="M133 20.01C133.01 20.060000000000002 133.02 20.12 133.05 20.16C133.45000000000002 20.74 133.86 21.32 134.28 21.89C134.73 22.48 135.25 23.03 135.88 23.490000000000002C136.38 23.85 136.93 24.150000000000002 137.6 24.23C137.87 24.26 137.89 24.25 137.88 23.96C137.85999999999999 23.85 137.84 23.66 137.78 23.48C137.2 21.59 135.51 20.35 133.19 20C133.13 19.99 133.06 20.01 133 20.01 " fill="#ffffff" fill-opacity="1" transform="matrix(1,0,0,1,-94,-10)"></path><path id="SvgjsPath1027" d="M133.99 19.24C134.25 19.279999999999998 134.53 19.27 134.8 19.279999999999998C134.91000000000003 19.279999999999998 134.97 19.22 134.93 19.119999999999997C134.9 19.04 134.86 18.97 134.82 18.889999999999997C134.01 17.33 132.07 16.009999999999998 129.42 15.999999999999996C129.38 15.999999999999996 129.26 16.009999999999998 129.16 16.029999999999998C129.1 16.029999999999998 129.04999999999998 16.06 129 16.08C129.02 16.11 129.04 16.15 129.07 16.18C130.09 17 131.09 17.84 132.22 18.54C132.76 18.869999999999997 133.33 19.14 133.99 19.24 " fill="#ffffff" fill-opacity="1" transform="matrix(1,0,0,1,-94,-10)"></path><path id="SvgjsPath1028" d="M130.72 16.31C130.94 16.24 130.94 16.209999999999997 130.8 16.06C130.78 16.04 130.76000000000002 16.02 130.74 15.999999999999998C129.44 14.749999999999998 127.82000000000001 14.059999999999999 125.84 14.04C125.36 13.93 124.91 14.079999999999998 124.46000000000001 14.149999999999999C124.30000000000001 14.169999999999998 124.15 14.229999999999999 124.00000000000001 14.269999999999998C124.14000000000001 14.329999999999998 124.28000000000002 14.379999999999997 124.41000000000001 14.449999999999998C125.19000000000001 14.809999999999997 125.97000000000001 15.189999999999998 126.76 15.529999999999998C127.54 15.879999999999997 128.35 16.169999999999998 129.21 16.339999999999996C129.71 16.429999999999996 130.22 16.469999999999995 130.72 16.309999999999995 " fill="#ffffff" fill-opacity="1" transform="matrix(1,0,0,1,-94,-10)"></path><path id="SvgjsPath1029" d="M111.28 47.53C110.4 46.92 109.4 46.5 108.31 46.25C107.62 46.09 106.91 45.99 106.41 46C105.2 46.01 104.24 46.15 103.28999999999999 46.33C103.22999999999999 46.339999999999996 103.16999999999999 46.37 103.10999999999999 46.379999999999995C102.97999999999999 46.419999999999995 102.96999999999998 46.48 103.05999999999999 46.559999999999995C103.21999999999998 46.69 103.38999999999999 46.81999999999999 103.54999999999998 46.949999999999996C104.62999999999998 47.79 105.84999999999998 48.44 107.27999999999999 48.79C108.10999999999999 48.99 108.94999999999999 49.04 109.78999999999999 48.83C110.39999999999999 48.68 110.92999999999999 48.42 111.33 47.989999999999995C111.56 47.74999999999999 111.56 47.739999999999995 111.28 47.529999999999994 " fill="#ffffff" fill-opacity="1" transform="matrix(1,0,0,1,-94,-10)"></path><path id="SvgjsPath1030" d="M104.23 45.64C104.87 45.64 105.42 45.5 105.9 45.22C106.30000000000001 44.99 106.30000000000001 44.98 106.02000000000001 44.66C104.84 43.29 103.26 42.44 101.27000000000001 42.16C100.59 42.06999999999999 99.9 42.04 99.21000000000001 42C98.98 41.99 98.95 42.04 99.06 42.21C99.94 43.53 101.05 44.660000000000004 102.7 45.34C103.19 45.550000000000004 103.72 45.660000000000004 104.23 45.64 " fill="#ffffff" fill-opacity="1" transform="matrix(1,0,0,1,-94,-10)"></path><path id="SvgjsPath1031" d="M100.57 41.6C100.85 41.550000000000004 101.16 41.5 101.46 41.410000000000004C101.77999999999999 41.32 101.78999999999999 41.28 101.67999999999999 41.03C101.11 39.75 100.21 38.7 98.83 37.96C98.03999999999999 37.54 97.17 37.27 96.28999999999999 37.03C96.00999999999999 36.96 95.96 37 96.02999999999999 37.22C96.34999999999998 38.26 96.79999999999998 39.26 97.57 40.12C98.13999999999999 40.769999999999996 98.86 41.29 99.82 41.489999999999995C100.05 41.53999999999999 100.28999999999999 41.559999999999995 100.57 41.599999999999994 " fill="#ffffff" fill-opacity="1" transform="matrix(1,0,0,1,-94,-10)"></path><path id="SvgjsPath1032" d="M97.56 36.2C97.96000000000001 36.36 98.38 36.42 98.82000000000001 36.34C99.15 36.28 99.16000000000001 36.28 99.12 36C99.03 35.32 98.83 34.66 98.51 34.02C97.84 32.730000000000004 96.7 31.820000000000004 95.31 31.1C95.01 30.950000000000003 95.01 30.950000000000003 95 31.23C95 31.31 95 31.39 95 31.44C95.06 32.47 95.21 33.46 95.67 34.39C96.06 35.160000000000004 96.63 35.82 97.56 36.2 " fill="#ffffff" fill-opacity="1" transform="matrix(1,0,0,1,-94,-10)"></path><path id="SvgjsPath1033" d="M96.42 31.62C96.71000000000001 31.790000000000003 97.03 31.91 97.39 31.94C97.59 31.96 97.73 31.92 97.74 31.720000000000002C97.77 31.380000000000003 97.80999999999999 31.05 97.85 30.71C97.83999999999999 28.92 97.00999999999999 27.42 95.61 26.11C95.56 26.06 95.49 26.04 95.42 26C95.39 26.06 95.35000000000001 26.11 95.33 26.17C95.01 27.360000000000003 94.86 28.560000000000002 95.16 29.770000000000003C95.35 30.490000000000002 95.66 31.160000000000004 96.42 31.620000000000005 " fill="#ffffff" fill-opacity="1" transform="matrix(1,0,0,1,-94,-10)"></path><path id="SvgjsPath1034" d="M101.43 37.85C102.08000000000001 37.27 102.4 36.56 102.51 35.78C102.55000000000001 35.52 102.54 35.27 102.56 35.01C102.54 34.05 102.33 33.11 102.07000000000001 32.18C102.01 31.95 101.98 31.95 101.79 32.12C100.94000000000001 32.879999999999995 100.27000000000001 33.73 100.07000000000001 34.769999999999996C99.86000000000001 35.879999999999995 100.10000000000001 36.919999999999995 100.93 37.83C101.16000000000001 38.08 101.18 38.08 101.43 37.85 " fill="#ffffff" fill-opacity="1" transform="matrix(1,0,0,1,-94,-10)"></path><path id="SvgjsPath1035" d="M97.32 27.11C97.64999999999999 27.23 97.69 27.23 97.80999999999999 26.95C98.11999999999999 26.23 98.32 25.5 98.36999999999999 24.74C98.38 24.61 98.38999999999999 24.47 98.39999999999999 24.25C98.39999999999999 23.21 98.08 22.15 97.50999999999999 21.13C97.41 20.959999999999997 97.35999999999999 20.959999999999997 97.27 21.11C96.55 22.3 95.97999999999999 23.52 96 24.88C96.01 25.39 96.12 25.869999999999997 96.39 26.33C96.6 26.68 96.89 26.95 97.32000000000001 27.11 " fill="#ffffff" fill-opacity="1" transform="matrix(1,0,0,1,-94,-10)"></path><path id="SvgjsPath1036" d="M98.92 33.48C99.23 33.25 99.52 32.989999999999995 99.76 32.709999999999994C100.22 32.199999999999996 100.44000000000001 31.589999999999993 100.59 30.959999999999994C100.81 30.049999999999994 100.85000000000001 29.119999999999994 100.9 28.189999999999994C100.9 28.129999999999995 100.87 28.059999999999995 100.85000000000001 27.999999999999993C100.78000000000002 28.029999999999994 100.7 28.039999999999992 100.64000000000001 28.07999999999999C99.25000000000001 28.879999999999992 98.27000000000001 29.91999999999999 98.04000000000002 31.36999999999999C98.01000000000002 31.55999999999999 98.01000000000002 31.74999999999999 98.00000000000001 31.93999999999999C97.98000000000002 32.42999999999999 98.11000000000001 32.89999999999999 98.33000000000001 33.34999999999999C98.50000000000001 33.719999999999985 98.55000000000001 33.749999999999986 98.92000000000002 33.47999999999999 " fill="#ffffff" fill-opacity="1" transform="matrix(1,0,0,1,-94,-10)"></path><path id="SvgjsPath1037" d="M98.72 21.95C98.88 22.06 99 22.04 99.1 21.89C99.3 21.61 99.52 21.34 99.69 21.060000000000002C100.46 19.820000000000004 100.92 18.520000000000003 100.91 17.110000000000003C100.86999999999999 16.770000000000003 100.84 16.44 100.81 16.1C100.8 15.990000000000002 100.75 15.96 100.64 16.060000000000002C99.52 17.090000000000003 98.54 18.200000000000003 98.15 19.590000000000003C98 20.090000000000003 97.93 20.600000000000005 98.10000000000001 21.110000000000003C98.2 21.44 98.39000000000001 21.740000000000002 98.72000000000001 21.950000000000003 " fill="#ffffff" fill-opacity="1" transform="matrix(1,0,0,1,-94,-10)"></path><path id="SvgjsPath1038" d="M102.88 18.13C104.58999999999999 16.779999999999998 105.78999999999999 15.169999999999998 106.47 13.28C106.49 13.229999999999999 106.5 13.17 106.51 13.12C106.52000000000001 13.08 106.51 13.02 106.5 13.01C106.45 13 106.37 12.99 106.33 13.02C104.67 13.91 103.11 14.89 102.32 16.49C102.16 16.81 102.08999999999999 17.16 102 17.43C102.05 17.66 102.06 17.81 102.11 17.95C102.28 18.45 102.44 18.48 102.88 18.13 " fill="#ffffff" fill-opacity="1" transform="matrix(1,0,0,1,-94,-10)"></path><path id="SvgjsPath1039" d="M98 27.23C98.04 27.46 98.08 27.7 98.12 27.94C98.14 28.05 98.21000000000001 28.080000000000002 98.32000000000001 28.040000000000003C98.59 27.930000000000003 98.88000000000001 27.830000000000002 99.12 27.69C99.67 27.37 100.08 26.94 100.4 26.450000000000003C100.93 25.640000000000004 101.28 24.770000000000003 101.59 23.890000000000004C101.67 23.650000000000006 101.77000000000001 23.400000000000006 101.85000000000001 23.160000000000004C101.88000000000001 23.050000000000004 101.86000000000001 22.960000000000004 101.68 23.020000000000003C99.82000000000001 23.67 98.53 24.740000000000002 98.12 26.460000000000004C98.06 26.710000000000004 98.04 26.960000000000004 98 27.230000000000004 " fill="#ffffff" fill-opacity="1" transform="matrix(1,0,0,1,-94,-10)"></path><path id="SvgjsPath1040" d="M106.44 14.3C106.89999999999999 14.08 107.37 13.870000000000001 107.81 13.63C108.79 13.09 109.75 12.530000000000001 110.56 11.8C111.18 11.25 111.83 10.71 112.47 10.16C112.51 10.120000000000001 112.52 10.05 112.55 10C112.49 10.01 112.42999999999999 10.01 112.36999999999999 10.03C110.74999999999999 10.389999999999999 109.21 10.899999999999999 107.85 11.75C107.32 12.08 106.86999999999999 12.48 106.47999999999999 12.92C106.19999999999999 13.23 106.02999999999999 13.57 105.99999999999999 13.97C106.00999999999999 14.020000000000001 106.00999999999999 14.07 106.01999999999998 14.13C106.08999999999997 14.39 106.15999999999998 14.42 106.43999999999998 14.3 " fill="#ffffff" fill-opacity="1" transform="matrix(1,0,0,1,-94,-10)"></path><path id="SvgjsPath1041" d="M100.27 24.23C100.95 24.150000000000002 101.5 23.85 102 23.490000000000002C102.63 23.03 103.15 22.48 103.6 21.89C104.02 21.32 104.41999999999999 20.740000000000002 104.83 20.16C104.86 20.12 104.86 20.06 104.88 20.01C104.82 20.01 104.75 19.990000000000002 104.69 20C102.37 20.35 100.67999999999999 21.59 100.1 23.48C100.03999999999999 23.66 100.02 23.85 100 23.96C99.99 24.25 100.01 24.26 100.27 24.23 " fill="#ffffff" fill-opacity="1" transform="matrix(1,0,0,1,-94,-10)"></path><path id="SvgjsPath1042" d="M107.87 16.18C107.9 16.15 107.92 16.11 107.94 16.08C107.89 16.06 107.84 16.04 107.78999999999999 16.029999999999998C107.67999999999999 16.009999999999998 107.57 15.999999999999998 107.52 15.999999999999998C104.88 16.009999999999998 102.92999999999999 17.33 102.11999999999999 18.889999999999997C102.07999999999998 18.969999999999995 102.03999999999999 19.039999999999996 102.00999999999999 19.119999999999997C101.96999999999998 19.22 102.02999999999999 19.279999999999998 102.14999999999999 19.279999999999998C102.41999999999999 19.279999999999998 102.69 19.279999999999998 102.96 19.24C103.61999999999999 19.139999999999997 104.19 18.869999999999997 104.72 18.54C105.86 17.84 106.85 17 107.87 16.18 " fill="#ffffff" fill-opacity="1" transform="matrix(1,0,0,1,-94,-10)"></path><path id="SvgjsPath1043" d="M112.49 14.45C112.61999999999999 14.379999999999999 112.75999999999999 14.33 112.89999999999999 14.27C112.74 14.23 112.58999999999999 14.17 112.44 14.15C111.98 14.08 111.53999999999999 13.93 111.05 14.040000000000001C109.08 14.06 107.46 14.75 106.16 16C106.14 16.02 106.11999999999999 16.04 106.1 16.06C105.94999999999999 16.209999999999997 105.96 16.24 106.17999999999999 16.31C106.67999999999999 16.47 107.17999999999999 16.43 107.69 16.34C108.55 16.169999999999998 109.36 15.879999999999999 110.14 15.53C110.93 15.19 111.7 14.809999999999999 112.49 14.45 " fill="#ffffff" fill-opacity="1" transform="matrix(1,0,0,1,-94,-10)"></path><path id="SvgjsPath1044" d="M104 23.82V24.54L118.83 19.72L133.65 24.54V23.82L118.83000000000001 19Z " fill="#ffffff" fill-opacity="1" transform="matrix(1,0,0,1,-94,-10)"></path><path id="SvgjsPath1045" d="M131.4 26.32C131.4 25.990000000000002 131.19 25.7 130.88 25.6C130.39 25.44 129.89 25.8 129.89 26.32V34.59C129.89 35.1 130.39 35.46 130.88 35.31C131.19 35.21 131.4 34.92 131.4 34.59ZM128.57 25.4C128.57 25.07 128.35999999999999 24.779999999999998 128.04999999999998 24.68L127.75999999999998 24.59C127.26999999999998 24.43 126.76999999999998 24.79 126.76999999999998 25.3V35.6C126.76999999999998 36.120000000000005 127.26999999999998 36.480000000000004 127.75999999999998 36.32L128.04999999999998 36.23C128.35999999999999 36.129999999999995 128.57 35.839999999999996 128.57 35.51ZM124.95 24.22C124.95 23.9 124.74000000000001 23.61 124.43 23.509999999999998L123.37 23.159999999999997C122.88000000000001 22.999999999999996 122.38000000000001 23.369999999999997 122.38000000000001 23.879999999999995V37.029999999999994C122.38000000000001 37.53999999999999 122.88000000000001 37.91 123.37 37.74999999999999L124.43 37.39999999999999C124.74000000000001 37.29999999999999 124.95 37.00999999999999 124.95 36.67999999999999ZM119.82 22.97C119.82 22.41 119.47 21.91 118.94 21.72L115.1 22.97C114.74 23.09 114.49 23.43 114.49 23.81V24.57C114.72 24.57 114.91 24.57 115.1 24.57C115.41999999999999 24.580000000000002 115.74 24.55 116.05999999999999 24.61C117.12999999999998 24.79 117.87999999999998 25.56 118.43999999999998 26.54C119.06999999999998 27.64 119.19999999999999 28.89 119.20999999999998 30.18C119.20999999999998 31.169999999999998 119.11999999999998 32.19 118.85999999999999 33.14C118.31999999999998 35.03 116.92999999999998 36.55 115.02999999999999 36.32C114.86999999999999 36.3 114.67999999999999 36.28 114.48999999999998 36.28V37.1C114.48999999999998 37.480000000000004 114.73999999999998 37.82 115.09999999999998 37.940000000000005L118.93999999999998 39.18000000000001C119.46999999999998 39.00000000000001 119.81999999999998 38.50000000000001 119.81999999999998 37.940000000000005ZM114.49 35.19C114.78999999999999 35.349999999999994 115.08 35.23 115.3 35.099999999999994C115.35 35.06999999999999 115.42999999999999 34.989999999999995 115.48 34.94C116.02000000000001 34.349999999999994 116.10000000000001 33.36 116.19 32.57C116.25 31.98 116.28 31.38 116.28999999999999 30.78C116.3 30.450000000000003 116.28999999999999 30.12 116.28999999999999 29.790000000000003C116.27999999999999 29.580000000000002 116.27 29.37 116.25999999999999 29.160000000000004C116.22999999999999 28.660000000000004 116.17999999999999 28.170000000000005 116.08999999999999 27.680000000000003C116.03999999999999 27.440000000000005 115.99 27.200000000000003 115.92999999999999 26.960000000000004C115.86999999999999 26.720000000000006 115.80999999999999 26.480000000000004 115.71 26.270000000000003C115.64 26.120000000000005 115.55999999999999 25.990000000000002 115.42999999999999 25.890000000000004C115.28999999999999 25.770000000000003 115.11 25.700000000000003 114.91999999999999 25.670000000000005C114.82 25.660000000000004 114.71 25.650000000000006 114.60999999999999 25.680000000000007C114.58999999999999 25.69000000000001 114.52999999999999 25.700000000000006 114.48999999999998 25.730000000000008ZM112.41 26.25C112.41 26.18 112.39999999999999 26.14 112.39999999999999 26.11C112.24999999999999 26.11 112.16 26.169999999999998 112.05999999999999 26.24C111.66999999999999 26.5 111.49999999999999 26.84 111.38999999999999 27.32C111.20999999999998 28.1 111.11999999999999 28.91 111.11999999999999 29.72C111.11999999999999 30.52 111.10999999999999 31.32 111.16999999999999 32.11C111.19999999999999 32.56 111.23999999999998 33.03 111.33999999999999 33.47C111.40999999999998 33.79 111.47999999999999 34.14 111.69999999999999 34.36C111.91999999999999 34.57 112.13 34.71 112.40999999999998 34.839999999999996ZM132.89 26.25C132.89 26.25 132.44 26.07 132.44 26.39V34.42C132.44 34.730000000000004 132.89 34.65 132.89 34.65V35.379999999999995L118.94999999999999 39.91L111.76999999999998 37.58V36.85C111.76999999999998 36.85 112.40999999999998 37.15 112.40999999999998 36.690000000000005V35.81C112.27999999999999 35.74 112.11999999999998 35.67 112.01999999999998 35.61C111.10999999999999 35.2 110.45999999999998 34.589999999999996 110.07999999999998 33.7C109.96999999999998 33.45 109.88999999999999 33.190000000000005 109.80999999999999 32.93C109.72999999999999 32.66 109.65999999999998 32.38 109.60999999999999 32.089999999999996C109.59999999999998 32.05 109.58999999999999 31.999999999999996 109.58999999999999 31.959999999999997C109.53999999999999 31.669999999999998 109.49 31.389999999999997 109.46999999999998 31.099999999999998C109.45999999999998 30.97 109.44999999999999 30.83 109.43999999999998 30.7C109.43999999999998 30.599999999999998 109.43999999999998 30.5 109.43999999999998 30.4C109.43999999999998 30.36 109.42999999999998 30.32 109.42999999999998 30.279999999999998C109.42999999999998 30.15 109.43999999999998 30.009999999999998 109.43999999999998 29.869999999999997C109.52999999999999 27.99 110.19999999999999 26.06 111.94999999999999 25.319999999999997C112.1 25.259999999999998 112.24 25.199999999999996 112.40999999999998 25.139999999999997V25.06C112.40999999999998 24.459999999999997 111.82999999999998 24.029999999999998 111.25999999999998 24.22L110.41999999999997 24.49C110.05999999999997 24.61 109.80999999999997 24.95 109.80999999999997 25.33V26.729999999999997C109.08999999999997 28.019999999999996 108.89999999999998 29.679999999999996 109.02999999999997 31.139999999999997C109.08999999999997 31.839999999999996 109.24999999999997 32.879999999999995 109.66999999999997 33.87C109.70999999999998 33.97 109.75999999999998 34.059999999999995 109.80999999999997 34.15V35.58C109.80999999999997 35.96 110.05999999999997 36.3 110.41999999999997 36.42L110.44999999999997 36.43V37.15L107.83999999999997 36.3V35.58C107.83999999999997 35.58 108.42999999999998 35.75 108.42999999999998 35.269999999999996V26.349999999999994C108.42999999999998 25.749999999999993 107.84999999999998 25.329999999999995 107.27999999999997 25.509999999999994L107.09999999999997 25.569999999999993C106.73999999999997 25.689999999999994 106.48999999999997 26.029999999999994 106.48999999999997 26.409999999999993V34.709999999999994C106.48999999999997 35.24999999999999 106.96999999999997 35.28999999999999 106.96999999999997 35.28999999999999V36.00999999999999L104.99999999999997 35.37999999999999V34.64999999999999C104.99999999999997 34.64999999999999 105.44999999999997 34.93999999999999 105.44999999999997 34.58999999999999V26.33999999999999C105.44999999999997 25.989999999999988 104.99999999999997 26.24999999999999 104.99999999999997 26.24999999999999V25.52999999999999L118.93999999999997 20.99999999999999L132.88999999999996 25.52999999999999Z " fill="#ffffff" fill-opacity="1" transform="matrix(1,0,0,1,-94,-10)"></path><path id="SvgjsPath1046" d="M112.37 18.37C112.37 17.76 112.78 17.04 113.28 16.75C113.79 16.46 114.2 16.71 114.2 17.31C114.2 17.919999999999998 113.79 18.64 113.28 18.93C112.78 19.23 112.37 18.97 112.37 18.37ZM118.83 12L104 22.11V22.83L118.83 18.02L133.65 22.83V22.11Z " fill="#ffffff" fill-opacity="1" transform="matrix(1,0,0,1,-94,-10)"></path><path id="SvgjsPath1047" d="M130.77 38.66C130.99 38.459999999999994 131.24 38.349999999999994 131.51000000000002 38.349999999999994C131.55 38.349999999999994 131.64000000000001 38.35999999999999 131.74 38.38999999999999C131.78 38.24999999999999 131.82000000000002 38.129999999999995 131.86 37.99999999999999L118.39000000000001 42.379999999999995L105.00000000000001 38.029999999999994C105.04000000000002 38.14999999999999 105.08000000000001 38.25999999999999 105.12000000000002 38.38999999999999C105.22000000000001 38.35999999999999 105.30000000000003 38.349999999999994 105.35000000000002 38.349999999999994C105.62000000000002 38.349999999999994 105.86000000000003 38.459999999999994 106.09000000000002 38.66C106.70000000000002 39.22 107.37000000000002 39.849999999999994 107.95000000000002 40.589999999999996L118.39000000000001 43.98L128.93 40.559999999999995C129.51000000000002 39.839999999999996 130.17000000000002 39.209999999999994 130.77 38.66 " fill="#ffffff" fill-opacity="1" transform="matrix(1,0,0,1,-94,-10)"></path><path id="SvgjsPath1048" d="M132.59 36L118.25 40.66L104 36.029999999999994C104.15 36.3 104.31 36.589999999999996 104.45 36.89999999999999L118.25 41.379999999999995L132.13 36.87C132.28 36.559999999999995 132.43 36.269999999999996 132.59 36 " fill="#ffffff" fill-opacity="1" transform="matrix(1,0,0,1,-94,-10)"></path><path id="SvgjsPath1049" d="M166.73 37.85C166.73 39.49 168.92999999999998 38.660000000000004 168.92999999999998 39.65V39.94H162.62999999999997V39.65C162.62999999999997 38.75 164.52999999999997 39.39 164.52999999999997 37.809999999999995V24.759999999999994H156.09999999999997V37.849999999999994C156.09999999999997 39.489999999999995 158.29999999999995 38.73 158.29999999999995 39.64999999999999V39.93999999999999H151.99999999999994V39.64999999999999C151.99999999999994 38.74999999999999 153.91999999999993 39.459999999999994 153.91999999999993 37.80999999999999V26.149999999999988C153.91999999999993 24.469999999999988 151.99999999999994 25.17999999999999 151.99999999999994 24.279999999999987V23.999999999999986H168.92999999999995V24.279999999999987C168.92999999999995 25.179999999999986 166.72999999999996 24.44999999999999 166.72999999999996 26.079999999999988Z " fill="#ffffff" fill-opacity="1" transform="matrix(1,0,0,1,-94,-10)"></path><path id="SvgjsPath1050" d="M179.71 36.86C182.98000000000002 36.67 185.11 34.51 185.11 31.88C185.11 29.02 182.98000000000002 27.099999999999998 179.71 26.86ZM177.51 26.91C174.67 27.1 172.37 29.26 172.37 31.79C172.37 34.65 174.41 36.6 177.51 36.86ZM179.71 37.85C179.71 39.49 181.91 38.730000000000004 181.91 39.65V39.94H175.59V39.65C175.59 38.75 177.51 39.46 177.51 37.809999999999995V37.62C172.63 37.19 170 35.059999999999995 170 31.86C170 28.78 173.48 26.46 177.51 26.15C177.45999999999998 24.54 175.59 25.18 175.59 24.279999999999998V23.999999999999996H181.91V24.279999999999998C181.91 25.179999999999996 179.71 24.499999999999996 179.71 26.15C184.19 26.34 187.45000000000002 28.549999999999997 187.45000000000002 31.84C187.45000000000002 35.08 184.35000000000002 37.36 179.71 37.59Z " fill="#ffffff" fill-opacity="1" transform="matrix(1,0,0,1,-94,-10)"></path><path id="SvgjsPath1051" d="M204.71 36.86C207.98000000000002 36.67 210.11 34.51 210.11 31.88C210.11 29.02 207.98000000000002 27.099999999999998 204.71 26.86ZM202.51 26.91C199.67 27.1 197.37 29.26 197.37 31.79C197.37 34.65 199.41 36.6 202.51 36.86ZM204.71 37.85C204.71 39.49 206.91 38.730000000000004 206.91 39.65V39.94H200.59V39.65C200.59 38.75 202.51 39.46 202.51 37.809999999999995V37.62C197.63 37.19 195 35.059999999999995 195 31.86C195 28.78 198.48 26.46 202.51 26.15C202.45999999999998 24.54 200.59 25.18 200.59 24.279999999999998V23.999999999999996H206.91V24.279999999999998C206.91 25.179999999999996 204.71 24.499999999999996 204.71 26.15C209.18 26.34 212.45000000000002 28.549999999999997 212.45000000000002 31.84C212.45000000000002 35.08 209.35000000000002 37.36 204.71 37.59Z " fill="#ffffff" fill-opacity="1" transform="matrix(1,0,0,1,-94,-10)"></path><path id="SvgjsPath1052" d="M217.51 37.62L222.12 29H225.46V29.31C225.46 29.54 225.37 29.66 225.11 29.73C224.28 29.92 224.02 30.09 224.02 31.2V37.12C224.02 38.239999999999995 224.28 38.4 225.11 38.61C225.37 38.66 225.46 38.78 225.46 39.019999999999996V39.31999999999999H220.66V38.96999999999999C220.66 38.709999999999994 220.84 38.60999999999999 221.07999999999998 38.56999999999999C221.92999999999998 38.349999999999994 222.11999999999998 38.18999999999999 222.11999999999998 37.099999999999994V30.699999999999996H222.02999999999997L217.40999999999997 39.31999999999999H213.99999999999997V38.96999999999999C213.99999999999997 38.709999999999994 214.18999999999997 38.60999999999999 214.42999999999998 38.56999999999999C215.29999999999998 38.349999999999994 215.48999999999998 38.209999999999994 215.48999999999998 37.099999999999994V31.229999999999993C215.48999999999998 30.139999999999993 215.29999999999998 29.989999999999995 214.42999999999998 29.759999999999994C214.18999999999997 29.709999999999994 213.99999999999997 29.619999999999994 213.99999999999997 29.359999999999996V28.999999999999996H218.82999999999998V29.309999999999995C218.82999999999998 29.539999999999996 218.73999999999998 29.659999999999997 218.48 29.729999999999997C217.67 29.919999999999998 217.41 30.089999999999996 217.41 31.179999999999996V37.62Z " fill="#ffffff" fill-opacity="1" transform="matrix(1,0,0,1,-94,-10)"></path><path id="SvgjsPath1053" d="M236.92 37.12C236.92 38.239999999999995 237.17999999999998 38.4 238.01 38.589999999999996C238.26999999999998 38.66 238.37 38.779999999999994 238.37 39.019999999999996V39.31999999999999H233.51V38.96999999999999C233.51 38.709999999999994 233.7 38.60999999999999 233.94 38.56999999999999C234.79 38.349999999999994 234.98 38.18999999999999 234.98 37.099999999999994V34.16H230.41V37.15C230.41 38.24 230.67 38.4 231.48 38.61C231.76 38.66 231.82999999999998 38.78 231.82999999999998 39.019999999999996V39.31999999999999H226.99999999999997V38.96999999999999C226.99999999999997 38.709999999999994 227.16999999999996 38.60999999999999 227.39999999999998 38.56999999999999C228.27999999999997 38.32999999999999 228.46999999999997 38.18999999999999 228.46999999999997 37.099999999999994V31.229999999999993C228.46999999999997 30.139999999999993 228.27999999999997 29.989999999999995 227.39999999999998 29.759999999999994C227.17 29.709999999999994 226.99999999999997 29.619999999999994 226.99999999999997 29.349999999999994V28.999999999999993H231.82999999999998V29.30999999999999C231.82999999999998 29.54999999999999 231.76 29.659999999999993 231.48 29.70999999999999C230.67 29.91999999999999 230.41 30.08999999999999 230.41 31.17999999999999V33.42999999999999H234.98V31.229999999999993C234.98 30.139999999999993 234.79 29.96999999999999 233.94 29.759999999999994C233.7 29.709999999999994 233.51 29.619999999999994 233.51 29.349999999999994V28.999999999999993H238.37V29.30999999999999C238.37 29.54999999999999 238.27 29.659999999999993 238.01 29.729999999999993C237.17999999999998 29.919999999999995 236.92 30.089999999999993 236.92 31.199999999999992Z " fill="#ffffff" fill-opacity="1" transform="matrix(1,0,0,1,-94,-10)"></path><path id="SvgjsPath1054" d="M246.75 34.57C246.56 34.57 246.16 34.54 245.85 34.54C243.1 34.54 242.04 35.68 242.04 37.15C242.04 38.309999999999995 242.7 38.85 243.85999999999999 38.85C244.97 38.85 246.13 38.160000000000004 246.74999999999997 37.31ZM248.69 37.43C248.69 38.61 248.98 38.88 250.06 39.02C250.06 39.18 250.09 39.39 250.09 39.56C249.69 39.730000000000004 249.07 39.89 248.45000000000002 39.89C247.53000000000003 39.89 246.87 39.59 246.82000000000002 38.26H246.73000000000002C245.45000000000002 39.66 244.10000000000002 39.919999999999995 242.77 39.919999999999995C241.35000000000002 39.919999999999995 240 39.089999999999996 240 37.41C240 34.56999999999999 242.87 33.76 245.35 33.76C245.75 33.76 246.23 33.78 246.75 33.86V32.17C246.75 30.82 246.09 29.740000000000002 244.38 29.740000000000002C243.43 29.740000000000002 242.65 29.970000000000002 242.13 30.42C242.57999999999998 30.8 242.75 31.25 242.75 31.680000000000003C242.75 32.150000000000006 242.42 32.74 241.75 32.74C241.16 32.74 240.83 32.24 240.83 31.680000000000003C240.83 30.750000000000004 241.73000000000002 29.000000000000004 244.71 29.000000000000004C247.91 29.000000000000004 248.69 30.92 248.69 32.77Z " fill="#ffffff" fill-opacity="1" transform="matrix(1,0,0,1,-94,-10)"></path><path id="SvgjsPath1055" d="M260.92 37.12C260.92 38.239999999999995 261.18 38.4 262.01 38.589999999999996C262.27 38.66 262.37 38.779999999999994 262.37 39.019999999999996V39.31999999999999H257.51V38.96999999999999C257.51 38.709999999999994 257.7 38.60999999999999 257.94 38.56999999999999C258.79 38.349999999999994 258.98 38.18999999999999 258.98 37.099999999999994V34.16H254.41000000000003V37.15C254.41000000000003 38.24 254.67000000000002 38.4 255.48000000000002 38.61C255.76000000000002 38.66 255.83 38.78 255.83 39.019999999999996V39.31999999999999H251V38.96999999999999C251 38.709999999999994 251.17 38.60999999999999 251.4 38.56999999999999C252.28 38.32999999999999 252.47 38.18999999999999 252.47 37.099999999999994V31.229999999999993C252.47 30.139999999999993 252.28 29.989999999999995 251.4 29.759999999999994C251.17000000000002 29.709999999999994 251 29.619999999999994 251 29.349999999999994V28.999999999999993H255.83V29.30999999999999C255.83 29.54999999999999 255.76000000000002 29.659999999999993 255.48000000000002 29.70999999999999C254.67000000000002 29.91999999999999 254.41000000000003 30.08999999999999 254.41000000000003 31.17999999999999V33.42999999999999H258.98V31.229999999999993C258.98 30.139999999999993 258.79 29.96999999999999 257.94 29.759999999999994C257.7 29.709999999999994 257.51 29.619999999999994 257.51 29.349999999999994V28.999999999999993H262.37V29.30999999999999C262.37 29.54999999999999 262.27 29.659999999999993 262.01 29.729999999999993C261.18 29.919999999999995 260.92 30.089999999999993 260.92 31.199999999999992Z " fill="#ffffff" fill-opacity="1" transform="matrix(1,0,0,1,-94,-10)"></path><path id="SvgjsPath1056" d="M273.05 31.3C273.05 31.98 272.64 32.55 272.03000000000003 32.55C271.29 32.55 270.94000000000005 31.979999999999997 270.94000000000005 31.369999999999997C270.94000000000005 30.99 271.11000000000007 30.54 271.39000000000004 30.179999999999996C270.89000000000004 29.969999999999995 270.35 29.879999999999995 269.83000000000004 29.879999999999995C267.74000000000007 29.879999999999995 266.11 31.339999999999996 266.11 34.489999999999995C266.11 37.41 267.65000000000003 38.779999999999994 269.73 38.779999999999994C270.68 38.779999999999994 271.82 38.56999999999999 273 37.98L273.31 38.449999999999996C272.24 39.349999999999994 270.99 39.88999999999999 269.21 39.88999999999999C265.91999999999996 39.88999999999999 264 37.709999999999994 264 34.589999999999996C264 31.319999999999997 266.39 28.999999999999996 269.49 28.999999999999996C272.24 28.999999999999996 273.05 30.399999999999995 273.05 31.299999999999997 " fill="#ffffff" fill-opacity="1" transform="matrix(1,0,0,1,-94,-10)"></path></svg>