<?xml version="1.0" encoding="UTF-8"?>
<svg width="72px" height="72px" viewBox="0 0 72 72" version="1.1" xmlns="http://www.w3.org/2000/svg" xmlns:xlink="http://www.w3.org/1999/xlink">
    <!-- Generator: Sketch 40.3 (33839) - http://www.bohemiancoding.com/sketch -->
    <title>icon</title>
    <desc>Created with Sketch.</desc>
    <defs></defs>
    <g id="service-refinance" stroke="none" stroke-width="1" fill="none" fill-rule="evenodd">
        <g id="service-refinance-desktop" transform="translate(-417.000000, -529.000000)" stroke-width="1.2" stroke="#2D2D2D">
            <g id="MAIN" transform="translate(95.000000, 140.000000)">
                <g id="Преимущества" transform="translate(0.000000, 390.000000)">
                    <g id="02" transform="translate(323.000000, 0.000000)">
                        <g id="icon">
                            <g>
                                <circle cx="35" cy="35" r="35"></circle>
                                <path d="M50,47.1105993 L50,50.9982499 C50,52.6560707 48.6657405,54 47.0038998,54 L20.9961002,54 C19.3413998,54 18,52.6582294 18,51.0089096 L18,32.9910904 L18,32.9910904 C18,31.3391568 19.3342595,30 20.9961002,30 L47.0038998,30 C48.6586002,30 50,31.3489962 50,33.0039768 L50,37.0833469" id="Rectangle-24" stroke-linecap="round" stroke-linejoin="round"></path>
                                <rect id="Rectangle-24-Copy" stroke-linecap="round" stroke-linejoin="round" x="40" y="37" width="12" height="10" rx="2"></rect>
                                <circle id="Oval-3" stroke-linecap="round" stroke-linejoin="round" cx="45" cy="42" r="2"></circle>
                                <g id="Group" transform="translate(21.000000, 18.000000)">
                                    <path d="M11.85382,12.043862 C13.1768253,10.7704001 14,8.9813314 14,7 C14,3.13400675 10.8659932,0 7,0 C3.13400675,0 0,3.13400675 0,7 C0,8.96850682 0.812552805,10.7472318 2.12055263,12.0190691" id="Oval-7"></path>
                                    <path d="M6.00687486,10.2998695 L6.00687486,4 L8.45638968,4.01862634 C9.00692035,4.02281263 9.45321364,4.46557653 9.45321364,5.03432048 L9.45321364,5.99579447 C9.45321364,6.55256056 9.00994184,7.00485939 8.45382558,7.00605216 L5,7.01345996" id="Path-27" stroke-linecap="round" stroke-linejoin="round"></path>
                                    <path d="M4.98237834,8.95240008 L8.48237834,8.95240008" id="Path-28" stroke-linecap="round" stroke-linejoin="round"></path>
                                </g>
                                <g id="Group-Copy-2" transform="translate(32.000000, 12.000000)">
                                    <path d="M3.03695618,12.7709129 C4.1637393,13.5461856 5.52887263,14 7,14 L7,14 C10.8659932,14 14,10.8659932 14,7 C14,3.13400675 10.8659932,0 7,0 C3.13400675,0 0,3.13400675 0,7" id="Oval-7"></path>
                                    <path d="M6.00687486,10.2998695 L6.00687486,4 L8.45638968,4.01862634 C9.00692035,4.02281263 9.45321364,4.46557653 9.45321364,5.03432048 L9.45321364,5.99579447 C9.45321364,6.55256056 9.00994184,7.00485939 8.45382558,7.00605216 L5,7.01345996" id="Path-27" stroke-linecap="round" stroke-linejoin="round"></path>
                                    <path d="M4.98237834,8.95240008 L8.48237834,8.95240008" id="Path-28" stroke-linecap="round" stroke-linejoin="round"></path>
                                </g>
                            </g>
                        </g>
                    </g>
                </g>
            </g>
        </g>
    </g>
</svg>