<svg id="SvgjsSvg1049" xmlns="http://www.w3.org/2000/svg" version="1.1" xmlns:xlink="http://www.w3.org/1999/xlink" xmlns:svgjs="http://svgjs.com/svgjs" width="42" height="42" viewBox="0 0 42 42"><title>Oval</title><desc>Created with Avocode.</desc><defs id="SvgjsDefs1050"></defs><path id="SvgjsPath1051" d="M115 4800C115 4788.95431 123.95430999999999 4780 135 4780C146.04569 4780 155 4788.95431 155 4800C155 4811.04569 146.04569 4820 135 4820C123.95430999999999 4820 115 4811.04569 115 4800Z " fill-opacity="0" fill="#ffffff" stroke-dashoffset="0" stroke-linejoin="miter" stroke-linecap="butt" stroke-opacity="1" stroke="#2d2d2d" stroke-miterlimit="50" stroke-width="2" transform="matrix(1,0,0,1,-114,-4779)"></path><path id="SvgjsPath1052" d="M123 4808.74C123 4807.0199999999995 124.06 4805.51 125.71 4804.87C125.71 4804.87 128.78 4804.04 131.07 4802.8C131.11395 4802.77569 131.15694 4802.75129 131.19899999999998 4802.72681ZM131.199 4802.72681L132.19000000000003 4802C131.92712000000003 4802.24475 131.60671000000002 4802.4895 131.199 4802.72681ZM137.78 4802.09C137.99311 4802.2726600000005 138.23518 4802.45533 138.52385 4802.63358ZM138.52385 4802.63358L146.88 4808.74C146.88 4807.0199999999995 145.82 4805.51 144.17 4804.87C144.17 4804.87 141.13 4804.05 138.80999999999997 4802.8C138.70965999999999 4802.74505 138.61445999999998 4802.68954 138.52384999999998 4802.633580000001Z " fill-opacity="0" fill="#ffffff" stroke-dashoffset="0" stroke-linejoin="round" stroke-linecap="round" stroke-opacity="1" stroke="#2d2d2d" stroke-miterlimit="50" stroke-width="2" transform="matrix(1,0,0,1,-114,-4779)"></path><path id="SvgjsPath1053" d="M141.1 4797.64C140.69 4799.1900000000005 139.71 4799.52 139.19 4799.59C138.87 4800.21 138.17 4801.47 137.47 4802.110000000001C137.19 4802.360000000001 136.82 4802.580000000001 136.38 4802.750000000001C135.82 4802.960000000001 135.23 4803.070000000001 134.62 4803.070000000001C134.01 4803.070000000001 133.42000000000002 4802.960000000001 132.86 4802.750000000001C132.42000000000002 4802.580000000001 132.05 4802.360000000001 131.77 4802.110000000001C131.07000000000002 4801.47 130.36 4800.210000000001 130.04000000000002 4799.59C129.52 4799.52 128.55 4799.1900000000005 128.13000000000002 4797.64C127.91000000000003 4796.820000000001 127.97000000000003 4796.150000000001 128.3 4795.650000000001C128.45000000000002 4795.420000000001 128.63000000000002 4795.27 128.8 4795.170000000001C128.8 4795.010000000001 128.81 4794.800000000001 128.83 4794.570000000001C128.52 4794.160000000001 128.11 4793.290000000001 128.62 4791.870000000001C129.16 4790.380000000001 130.37 4790.150000000001 130.96 4790.130000000001C131.16 4789.770000000001 131.53 4789.260000000001 132.21 4788.800000000001C132.97 4788.280000000001 133.95000000000002 4788.000000000001 134.99 4788.000000000001C136.26000000000002 4788.000000000001 137.54000000000002 4788.430000000001 138.69 4789.250000000001C140.56 4790.580000000001 140.4 4793.530000000001 140.35 4794.060000000001C140.42 4794.510000000001 140.44 4794.9000000000015 140.44 4795.170000000001C140.60999999999999 4795.270000000001 140.79 4795.420000000001 140.93 4795.650000000001C141.27 4796.150000000001 141.33 4796.820000000001 141.1 4797.64Z " fill-opacity="0" fill="#ffffff" stroke-dashoffset="0" stroke-linejoin="round" stroke-linecap="round" stroke-opacity="1" stroke="#2d2d2d" stroke-miterlimit="50" stroke-width="2" transform="matrix(1,0,0,1,-114,-4779)"></path><path id="SvgjsPath1054" d="M129 4793.89L136.79 4795.84L136.7 4793.89L140.66 4793 " fill-opacity="0" fill="#ffffff" stroke-dashoffset="0" stroke-linejoin="round" stroke-linecap="round" stroke-opacity="1" stroke="#2d2d2d" stroke-miterlimit="50" stroke-width="2" transform="matrix(1,0,0,1,-114,-4779)"></path><path id="SvgjsPath1055" d="M129 4804.16L134.97 4808.11L139.99 4804 " fill-opacity="0" fill="#ffffff" stroke-dashoffset="0" stroke-linejoin="round" stroke-linecap="round" stroke-opacity="1" stroke="#2d2d2d" stroke-miterlimit="50" stroke-width="2" transform="matrix(1,0,0,1,-114,-4779)"></path></svg>