<svg id="SvgjsSvg1049" xmlns="http://www.w3.org/2000/svg" version="1.1" xmlns:xlink="http://www.w3.org/1999/xlink" xmlns:svgjs="http://svgjs.com/svgjs" width="71.20000000000005" height="71.19999999999982" viewBox="0 0 71.20000000000005 71.19999999999982"><title>icon</title><desc>Created with Avocode.</desc><defs id="SvgjsDefs1050"></defs><path id="SvgjsPath1051" d="M545 1367C545 1347.67003 560.67003 1332 580 1332C599.32997 1332 615 1347.67003 615 1367C615 1386.32997 599.32997 1402 580 1402C560.67003 1402 545 1386.32997 545 1367Z " fill-opacity="0" fill="#ffffff" stroke-dashoffset="0" stroke-linejoin="miter" stroke-linecap="butt" stroke-opacity="1" stroke="#2d2d2d" stroke-miterlimit="50" stroke-width="1.2" transform="matrix(1,0,0,1,-544.4,-1331.4)"></path><path id="SvgjsPath1052" d="M565 1367C565 1358.71573 571.71573 1352 580 1352C588.28427 1352 595 1358.71573 595 1367C595 1375.28427 588.28427 1382 580 1382C571.71573 1382 565 1375.28427 565 1367Z " fill-opacity="0" fill="#ffffff" stroke-dashoffset="0" stroke-linejoin="miter" stroke-linecap="butt" stroke-opacity="1" stroke="#2d2d2d" stroke-miterlimit="50" stroke-width="1.2" transform="matrix(1,0,0,1,-544.4,-1331.4)"></path><path id="SvgjsPath1053" d="M579 1358V1368H589 " fill-opacity="0" fill="#ffffff" stroke-dashoffset="0" stroke-linejoin="round" stroke-linecap="round" stroke-opacity="1" stroke="#2d2d2d" stroke-miterlimit="50" stroke-width="1.2" transform="matrix(1,0,0,1,-544.4,-1331.4)"></path><path id="SvgjsPath1054" d="M580 1352V1349 " fill-opacity="0" fill="#ffffff" stroke-dashoffset="0" stroke-linejoin="round" stroke-linecap="round" stroke-opacity="1" stroke="#2d2d2d" stroke-miterlimit="50" stroke-width="1.2" transform="matrix(1,0,0,1,-544.4,-1331.4)"></path><path id="SvgjsPath1055" d="M577 1348.6H583 " fill-opacity="0" fill="#ffffff" stroke-dashoffset="0" stroke-linejoin="round" stroke-linecap="round" stroke-opacity="1" stroke="#2d2d2d" stroke-miterlimit="50" stroke-width="1.200000047683716" transform="matrix(1,0,0,1,-544.4,-1331.4)"></path></svg>