<svg id="SvgjsSvg1012" xmlns="http://www.w3.org/2000/svg" version="1.1" xmlns:xlink="http://www.w3.org/1999/xlink" xmlns:svgjs="http://svgjs.com/svgjs" width="40" height="40" viewBox="0 0 40 40"><title>vk</title><desc>Created with Avocode.</desc><defs id="SvgjsDefs1013"><linearGradient id="SvgjsLinearGradient1016" gradientUnits="userSpaceOnUse" x1="750" y1="585" x2="750" y2="625"><stop id="SvgjsStop1017" stop-opacity="0" stop-color="#000000" offset="0"></stop><stop id="SvgjsStop1018" stop-opacity="0.16" stop-color="#000000" offset="1"></stop></linearGradient></defs><path id="SvgjsPath1014" d="M730 625H770V585H730ZM762.84 609.96C763.21 610.4100000000001 763.5600000000001 610.87 763.82 611.39C764.2 612.13 763.86 612.9399999999999 763.2 612.99L759.12 612.98C758.07 613.07 757.23 612.64 756.53 611.9200000000001C755.9599999999999 611.34 755.4399999999999 610.72 754.89 610.1200000000001C754.67 609.8700000000001 754.4399999999999 609.6400000000001 754.16 609.4600000000002C753.6 609.0900000000001 753.12 609.2000000000002 752.8 609.7900000000002C752.4799999999999 610.3900000000002 752.4 611.0500000000002 752.37 611.7100000000002C752.33 612.6800000000002 752.04 612.9400000000002 751.08 612.9800000000001C749.01 613.0800000000002 747.0600000000001 612.7600000000001 745.24 611.7200000000001C743.63 610.7900000000002 742.39 609.4800000000001 741.3100000000001 608.0000000000001C739.2 605.1200000000001 737.59 601.9600000000002 736.1400000000001 598.7000000000002C735.8100000000001 597.9600000000002 736.0500000000001 597.5700000000002 736.8500000000001 597.5600000000002C738.1900000000002 597.5300000000002 739.5200000000001 597.5300000000002 740.8500000000001 597.5600000000002C741.3900000000001 597.5600000000002 741.7500000000001 597.8800000000002 741.9600000000002 598.3900000000002C742.6800000000002 600.1800000000002 743.5600000000002 601.8800000000002 744.6600000000002 603.4600000000003C744.9600000000002 603.8800000000002 745.2600000000002 604.3000000000003 745.6800000000002 604.5900000000003C746.1600000000002 604.9200000000003 746.5200000000002 604.8100000000003 746.7400000000001 604.2800000000003C746.8800000000001 603.9400000000003 746.9400000000002 603.5800000000003 746.9700000000001 603.2200000000004C747.0800000000002 601.9700000000004 747.0900000000001 600.7300000000004 746.9100000000002 599.4900000000004C746.8000000000002 598.7200000000004 746.3600000000002 598.2200000000004 745.6000000000003 598.0700000000004C745.2100000000003 598.0000000000003 745.2700000000002 597.8500000000004 745.4600000000003 597.6300000000003C745.7900000000003 597.2400000000004 746.1000000000003 597.0000000000003 746.7100000000003 597.0000000000003H751.3200000000003C752.0400000000003 597.1400000000003 752.2100000000003 597.4700000000004 752.3100000000003 598.2100000000004V603.3800000000003C752.3000000000003 603.6700000000003 752.4500000000003 604.5100000000003 752.9600000000003 604.7000000000004C753.3700000000002 604.8400000000004 753.6400000000002 604.5100000000003 753.8800000000002 604.2500000000003C754.9800000000002 603.0600000000003 755.7700000000002 601.6700000000003 756.4800000000002 600.2200000000004C756.7900000000002 599.5800000000004 757.0600000000003 598.9200000000004 757.3200000000003 598.2600000000003C757.5100000000003 597.7700000000003 757.8100000000003 597.5300000000003 758.3600000000002 597.5400000000003H762.8000000000003C762.9300000000003 597.5400000000003 763.0600000000003 597.5400000000003 763.1900000000003 597.5700000000003C763.9400000000003 597.7000000000003 764.1400000000003 598.0200000000003 763.9100000000003 598.7600000000003C763.5500000000003 599.9100000000003 762.8400000000003 600.8800000000003 762.1500000000003 601.8500000000004C761.4000000000003 602.8800000000003 760.6200000000003 603.8800000000003 759.8800000000003 604.9200000000004C759.2100000000004 605.8700000000005 759.2600000000003 606.3500000000004 760.1000000000004 607.1700000000004C761.0300000000003 608.0900000000004 762.0100000000003 608.9500000000004 762.8400000000004 609.9600000000004Z " fill="#4ab9ff" fill-opacity="1" transform="matrix(1,0,0,1,-730,-585)"></path><path id="SvgjsPath1015" d="M730 625H770V585H730ZM762.84 609.96C763.21 610.4100000000001 763.5600000000001 610.87 763.82 611.39C764.2 612.13 763.86 612.9399999999999 763.2 612.99L759.12 612.98C758.07 613.07 757.23 612.64 756.53 611.9200000000001C755.9599999999999 611.34 755.4399999999999 610.72 754.89 610.1200000000001C754.67 609.8700000000001 754.4399999999999 609.6400000000001 754.16 609.4600000000002C753.6 609.0900000000001 753.12 609.2000000000002 752.8 609.7900000000002C752.4799999999999 610.3900000000002 752.4 611.0500000000002 752.37 611.7100000000002C752.33 612.6800000000002 752.04 612.9400000000002 751.08 612.9800000000001C749.01 613.0800000000002 747.0600000000001 612.7600000000001 745.24 611.7200000000001C743.63 610.7900000000002 742.39 609.4800000000001 741.3100000000001 608.0000000000001C739.2 605.1200000000001 737.59 601.9600000000002 736.1400000000001 598.7000000000002C735.8100000000001 597.9600000000002 736.0500000000001 597.5700000000002 736.8500000000001 597.5600000000002C738.1900000000002 597.5300000000002 739.5200000000001 597.5300000000002 740.8500000000001 597.5600000000002C741.3900000000001 597.5600000000002 741.7500000000001 597.8800000000002 741.9600000000002 598.3900000000002C742.6800000000002 600.1800000000002 743.5600000000002 601.8800000000002 744.6600000000002 603.4600000000003C744.9600000000002 603.8800000000002 745.2600000000002 604.3000000000003 745.6800000000002 604.5900000000003C746.1600000000002 604.9200000000003 746.5200000000002 604.8100000000003 746.7400000000001 604.2800000000003C746.8800000000001 603.9400000000003 746.9400000000002 603.5800000000003 746.9700000000001 603.2200000000004C747.0800000000002 601.9700000000004 747.0900000000001 600.7300000000004 746.9100000000002 599.4900000000004C746.8000000000002 598.7200000000004 746.3600000000002 598.2200000000004 745.6000000000003 598.0700000000004C745.2100000000003 598.0000000000003 745.2700000000002 597.8500000000004 745.4600000000003 597.6300000000003C745.7900000000003 597.2400000000004 746.1000000000003 597.0000000000003 746.7100000000003 597.0000000000003H751.3200000000003C752.0400000000003 597.1400000000003 752.2100000000003 597.4700000000004 752.3100000000003 598.2100000000004V603.3800000000003C752.3000000000003 603.6700000000003 752.4500000000003 604.5100000000003 752.9600000000003 604.7000000000004C753.3700000000002 604.8400000000004 753.6400000000002 604.5100000000003 753.8800000000002 604.2500000000003C754.9800000000002 603.0600000000003 755.7700000000002 601.6700000000003 756.4800000000002 600.2200000000004C756.7900000000002 599.5800000000004 757.0600000000003 598.9200000000004 757.3200000000003 598.2600000000003C757.5100000000003 597.7700000000003 757.8100000000003 597.5300000000003 758.3600000000002 597.5400000000003H762.8000000000003C762.9300000000003 597.5400000000003 763.0600000000003 597.5400000000003 763.1900000000003 597.5700000000003C763.9400000000003 597.7000000000003 764.1400000000003 598.0200000000003 763.9100000000003 598.7600000000003C763.5500000000003 599.9100000000003 762.8400000000003 600.8800000000003 762.1500000000003 601.8500000000004C761.4000000000003 602.8800000000003 760.6200000000003 603.8800000000003 759.8800000000003 604.9200000000004C759.2100000000004 605.8700000000005 759.2600000000003 606.3500000000004 760.1000000000004 607.1700000000004C761.0300000000003 608.0900000000004 762.0100000000003 608.9500000000004 762.8400000000004 609.9600000000004Z " fill="url(#SvgjsLinearGradient1016)" transform="matrix(1,0,0,1,-730,-585)"></path></svg>