<svg id="SvgjsSvg1041" xmlns="http://www.w3.org/2000/svg" version="1.1" xmlns:xlink="http://www.w3.org/1999/xlink" xmlns:svgjs="http://svgjs.com/svgjs" width="42" height="42" viewBox="0 0 42 42"><title>Oval</title><desc>Created with Avocode.</desc><defs id="SvgjsDefs1042"></defs><path id="SvgjsPath1043" d="M975 4597C975 4585.95431 983.95431 4577 995 4577C1006.04569 4577 1015 4585.95431 1015 4597C1015 4608.04569 1006.04569 4617 995 4617C983.95431 4617 975 4608.04569 975 4597Z " fill-opacity="0" fill="#ffffff" stroke-dashoffset="0" stroke-linejoin="miter" stroke-linecap="butt" stroke-opacity="1" stroke="#2d2d2d" stroke-miterlimit="50" stroke-width="2" transform="matrix(1,0,0,1,-974,-4576)"></path><path id="SvgjsPath1044" d="M983 4606V4594H1007V4606Z " fill-opacity="0" fill="#ffffff" stroke-dashoffset="0" stroke-linejoin="round" stroke-linecap="round" stroke-opacity="1" stroke="#2d2d2d" stroke-miterlimit="50" stroke-width="2" transform="matrix(1,0,0,1,-974,-4576)"></path><path id="SvgjsPath1045" d="M983 4590C983 4588.89543 983.89543 4588 985 4588H1005C1006.10457 4588 1007 4588.89543 1007 4590V4594V4594H983V4594Z " fill-opacity="0" fill="#ffffff" stroke-dashoffset="0" stroke-linejoin="round" stroke-linecap="round" stroke-opacity="1" stroke="#2d2d2d" stroke-miterlimit="50" stroke-width="2" transform="matrix(1,0,0,1,-974,-4576)"></path><path id="SvgjsPath1046" d="M986 4591H987 " fill-opacity="0" fill="#ffffff" stroke-dashoffset="0" stroke-linejoin="round" stroke-linecap="round" stroke-opacity="1" stroke="#2d2d2d" stroke-miterlimit="50" stroke-width="2" transform="matrix(1,0,0,1,-974,-4576)"></path><path id="SvgjsPath1047" d="M990 4591H991 " fill-opacity="0" fill="#ffffff" stroke-dashoffset="0" stroke-linejoin="round" stroke-linecap="round" stroke-opacity="1" stroke="#2d2d2d" stroke-miterlimit="50" stroke-width="2" transform="matrix(1,0,0,1,-974,-4576)"></path><path id="SvgjsPath1048" d="M994 4591H995 " fill-opacity="0" fill="#ffffff" stroke-dashoffset="0" stroke-linejoin="round" stroke-linecap="round" stroke-opacity="1" stroke="#2d2d2d" stroke-miterlimit="50" stroke-width="2" transform="matrix(1,0,0,1,-974,-4576)"></path></svg>