<?xml version="1.0" encoding="UTF-8"?>
<svg width="42px" height="42px" viewBox="0 0 42 42" version="1.1" xmlns="http://www.w3.org/2000/svg" xmlns:xlink="http://www.w3.org/1999/xlink">
    <!-- Generator: Sketch 40.3 (33839) - http://www.bohemiancoding.com/sketch -->
    <title>icon</title>
    <desc>Created with Sketch.</desc>
    <defs></defs>
    <g id="service-refinance" stroke="none" stroke-width="1" fill="none" fill-rule="evenodd" stroke-linecap="round" stroke-linejoin="round">
        <g id="service-refinance-desktop" transform="translate(-114.000000, -1488.000000)" stroke="#2D2D2D" stroke-width="2">
            <g id="Оцените-преимущества" transform="translate(95.000000, 1383.000000)">
                <g id="01" transform="translate(0.000000, 86.000000)">
                    <g id="icon" transform="translate(40.000000, 40.000000) scale(-1, -1) translate(-40.000000, -40.000000) translate(20.000000, 20.000000)">
                        <circle cx="20" cy="20" r="20"></circle>
                        <path d="M31.5107324,16.2738145 C32.3736,16.7442392 32.6237806,17.8502377 32.0417279,18.6309425 L31.6587984,19.1414034 C31.2452346,19.7019094 31.2350232,20.4575917 31.6434812,21.0180977 L32.0161992,21.5335631 C32.5880405,22.3242769 32.3225428,23.4252709 31.4494637,23.8806821 L30.8776224,24.1809531 C30.2547238,24.5062468 29.9177459,25.1868613 30.0351776,25.8674757 L30.1423979,26.4930405 C30.3057811,27.4489035 29.580768,28.3296987 28.5902572,28.3697348 L27.9469358,28.3947574 C27.2423456,28.4247845 26.6347642,28.8902047 26.4407466,29.5558056 L26.2620462,30.1663568 C25.986337,31.0971972 24.944769,31.5776309 24.0359498,31.1972875 L23.4436856,30.9470616 C22.7952584,30.6718131 22.0447167,30.8369622 21.5698842,31.3524276 L21.1410032,31.8228523 C20.4823646,32.5435029 19.3284706,32.5334939 18.6800434,31.8028342 L18.2562682,31.327405 C17.7916471,30.8069351 17.0411054,30.631777 16.3926782,30.8970165 L15.7953083,31.1372333 C14.8813834,31.5075677 13.844921,31.0071159 13.584529,30.071271 L13.4160401,29.4607198 C13.232234,28.7951188 12.6297583,28.3196896 11.9251681,28.2796535 L11.2818467,28.2446219 C10.2964416,28.1895722 9.58163999,27.2987679 9.76034039,26.3479095 L9.87777209,25.7273492 C10.0054152,25.0467348 9.67354306,24.3661203 9.06085596,24.0308176 L8.49412039,23.725542 C7.626147,23.2601218 7.37596644,22.1541233 7.95801918,21.3734185 L8.34094862,20.8629576 L8.34094862,20.8629576 C8.75451241,20.3024516 8.76472386,19.5467694 8.35626579,18.9862633 L7.98354781,18.470798 C7.41170652,17.6800841 7.67720426,16.5790901 8.55028338,16.123679 L9.12212467,15.8234079 C9.74502322,15.4981142 10.0820011,14.8174997 9.96456943,14.1368853 L9.85734919,13.5113205 C9.69396596,12.5554575 10.418979,11.6746624 11.4094898,11.6346262 L12.0528113,11.6096036 C12.7574014,11.5795765 13.3649828,11.1141563 13.5590004,10.4485554 L13.7377008,9.83800421 C14.01341,8.90716384 15.0549781,8.4267301 15.9637973,8.80707348 L16.5560615,9.05729938 C17.2044886,9.33254788 17.9550303,9.16739878 18.4298628,8.65193341 L18.8587438,8.18150871 C19.5224882,7.45585358 20.6763822,7.46586262 21.3248094,8.19652227 L21.7485846,8.67195149 C22.2132057,9.19242137 22.9637474,9.36757951 23.6121745,9.10234005 L24.2095445,8.86212318" id="Shape"></path>
                        <path d="M16,24.35523 L29.4350288,10.9202012" id="Path-14"></path>
                        <polyline id="Rectangle-11" points="27.1428571 10 30.5714286 10 30.5714286 13.4285714"></polyline>
                        <ellipse id="Oval-4" cx="17.7142857" cy="15.1428571" rx="1.71428571" ry="2.28571429"></ellipse>
                        <ellipse id="Oval-4" cx="23.4285714" cy="24.2857143" rx="1.71428571" ry="2.28571429"></ellipse>
                    </g>
                </g>
            </g>
        </g>
    </g>
</svg>