<svg id="SvgjsSvg1061" xmlns="http://www.w3.org/2000/svg" version="1.1" xmlns:xlink="http://www.w3.org/1999/xlink" xmlns:svgjs="http://svgjs.com/svgjs" width="42" height="42" viewBox="0 0 42 42"><title>Oval</title><desc>Created with Avocode.</desc><defs id="SvgjsDefs1062"></defs><path id="SvgjsPath1063" d="M975 4800C975 4788.95431 983.95431 4780 995 4780C1006.04569 4780 1015 4788.95431 1015 4800C1015 4811.04569 1006.04569 4820 995 4820C983.95431 4820 975 4811.04569 975 4800Z " fill-opacity="0" fill="#ffffff" stroke-dashoffset="0" stroke-linejoin="miter" stroke-linecap="butt" stroke-opacity="1" stroke="#2d2d2d" stroke-miterlimit="50" stroke-width="2" transform="matrix(1,0,0,1,-974,-4779)"></path><path id="SvgjsPath1064" d="M985 4810.41H1000.53C1001.8399999999999 4810.41 1002.9 4809.34 1002.9 4808.03V4798.57C1002.9 4797.25 1001.84 4796.19 1000.53 4796.19H993.35Z " fill-opacity="0" fill="#ffffff" stroke-dashoffset="0" stroke-linejoin="round" stroke-linecap="round" stroke-opacity="1" stroke="#2d2d2d" stroke-miterlimit="50" stroke-width="2" transform="matrix(1,0,0,1,-974,-4779)"></path><path id="SvgjsPath1065" d="M993.74 4795.95L993.76 4799.49C993.77 4800.79 992.71 4801.849999999999 991.39 4801.849999999999C990.0699999999999 4801.849999999999 989 4800.799999999999 989 4799.48V4790Z " fill-opacity="0" fill="#ffffff" stroke-dashoffset="0" stroke-linejoin="round" stroke-linecap="round" stroke-opacity="1" stroke="#2d2d2d" stroke-miterlimit="50" stroke-width="2" transform="matrix(1,0,0,1,-974,-4779)"></path><path id="SvgjsPath1066" d="M1002.97 4801.19H997 " fill-opacity="0" fill="#ffffff" stroke-dashoffset="0" stroke-linejoin="round" stroke-linecap="round" stroke-opacity="1" stroke="#2d2d2d" stroke-miterlimit="50" stroke-width="2" transform="matrix(1,0,0,1,-974,-4779)"></path><path id="SvgjsPath1067" d="M1002.97 4805.19H997 " fill-opacity="0" fill="#ffffff" stroke-dashoffset="0" stroke-linejoin="round" stroke-linecap="round" stroke-opacity="1" stroke="#2d2d2d" stroke-miterlimit="50" stroke-width="2" transform="matrix(1,0,0,1,-974,-4779)"></path><path id="SvgjsPath1068" d="M985.19 4794V4812.97 " fill-opacity="0" fill="#ffffff" stroke-dashoffset="0" stroke-linejoin="round" stroke-linecap="round" stroke-opacity="1" stroke="#2d2d2d" stroke-miterlimit="50" stroke-width="2" transform="matrix(1,0,0,1,-974,-4779)"></path><path id="SvgjsPath1069" d="M986 4790.19H1005.1 " fill-opacity="0" fill="#ffffff" stroke-dashoffset="0" stroke-linejoin="round" stroke-linecap="round" stroke-opacity="1" stroke="#2d2d2d" stroke-miterlimit="50" stroke-width="2" transform="matrix(1,0,0,1,-974,-4779)"></path></svg>