<svg id="SvgjsSvg1056" xmlns="http://www.w3.org/2000/svg" version="1.1" xmlns:xlink="http://www.w3.org/1999/xlink" xmlns:svgjs="http://svgjs.com/svgjs" width="71.20000000000027" height="71.19999999999982" viewBox="0 0 71.20000000000027 71.19999999999982"><title>icon</title><desc>Created with Avocode.</desc><defs id="SvgjsDefs1057"></defs><path id="SvgjsPath1058" d="M975 1367C975 1347.67003 990.67003 1332 1010 1332C1029.32997 1332 1045 1347.67003 1045 1367C1045 1386.32997 1029.32997 1402 1010 1402C990.67003 1402 975 1386.32997 975 1367Z " fill-opacity="0" fill="#ffffff" stroke-dashoffset="0" stroke-linejoin="miter" stroke-linecap="butt" stroke-opacity="1" stroke="#2d2d2d" stroke-miterlimit="50" stroke-width="1.2" transform="matrix(1,0,0,1,-974.3999999999999,-1331.4)"></path><path id="SvgjsPath1059" d="M1010 1349L1029 1357H991Z " fill-opacity="0" fill="#ffffff" stroke-dashoffset="0" stroke-linejoin="round" stroke-linecap="round" stroke-opacity="1" stroke="#2d2d2d" stroke-miterlimit="50" stroke-width="1.2" transform="matrix(1,0,0,1,-974.3999999999999,-1331.4)"></path><path id="SvgjsPath1060" d="M997 1373V1360H1001V1373Z " fill-opacity="0" fill="#ffffff" stroke-dashoffset="0" stroke-linejoin="round" stroke-linecap="round" stroke-opacity="1" stroke="#2d2d2d" stroke-miterlimit="50" stroke-width="1.2" transform="matrix(1,0,0,1,-974.3999999999999,-1331.4)"></path><path id="SvgjsPath1061" d="M1008 1373V1360H1012V1373Z " fill-opacity="0" fill="#ffffff" stroke-dashoffset="0" stroke-linejoin="round" stroke-linecap="round" stroke-opacity="1" stroke="#2d2d2d" stroke-miterlimit="50" stroke-width="1.2" transform="matrix(1,0,0,1,-974.3999999999999,-1331.4)"></path><path id="SvgjsPath1062" d="M1019 1373V1360H1023V1373Z " fill-opacity="0" fill="#ffffff" stroke-dashoffset="0" stroke-linejoin="round" stroke-linecap="round" stroke-opacity="1" stroke="#2d2d2d" stroke-miterlimit="50" stroke-width="1.2" transform="matrix(1,0,0,1,-974.3999999999999,-1331.4)"></path><path id="SvgjsPath1063" d="M994 1376V1373H1026V1376Z " fill-opacity="0" fill="#ffffff" stroke-dashoffset="0" stroke-linejoin="round" stroke-linecap="round" stroke-opacity="1" stroke="#2d2d2d" stroke-miterlimit="50" stroke-width="1.2" transform="matrix(1,0,0,1,-974.3999999999999,-1331.4)"></path><path id="SvgjsPath1064" d="M994 1360V1357H1026V1360Z " fill-opacity="0" fill="#ffffff" stroke-dashoffset="0" stroke-linejoin="round" stroke-linecap="round" stroke-opacity="1" stroke="#2d2d2d" stroke-miterlimit="50" stroke-width="1.2" transform="matrix(1,0,0,1,-974.3999999999999,-1331.4)"></path><path id="SvgjsPath1065" d="M992 1379V1376H1028V1379Z " fill-opacity="0" fill="#ffffff" stroke-dashoffset="0" stroke-linejoin="round" stroke-linecap="round" stroke-opacity="1" stroke="#2d2d2d" stroke-miterlimit="50" stroke-width="1.2" transform="matrix(1,0,0,1,-974.3999999999999,-1331.4)"></path></svg>