<svg id="SvgjsSvg1013" xmlns="http://www.w3.org/2000/svg" version="1.1" xmlns:xlink="http://www.w3.org/1999/xlink" xmlns:svgjs="http://svgjs.com/svgjs" width="71.20000000000005" height="71.20000000000005" viewBox="0 0 71.20000000000005 71.20000000000005"><title>icon</title><desc>Created with Avocode.</desc><defs id="SvgjsDefs1014"></defs><path id="SvgjsPath1015" d="M418 565C418 545.67003 433.67003 530 453 530C472.32997 530 488 545.67003 488 565C488 584.32997 472.32997 600 453 600C433.67003 600 418 584.32997 418 565Z " fill-opacity="0" fill="#ffffff" stroke-dashoffset="0" stroke-linejoin="miter" stroke-linecap="butt" stroke-opacity="1" stroke="#2d2d2d" stroke-miterlimit="50" stroke-width="1.2" transform="matrix(1,0,0,1,-417.4,-529.4)"></path><path id="SvgjsPath1016" d="M440 550H459L466 557.07V580H440Z " fill-opacity="0" fill="#ffffff" stroke-dashoffset="0" stroke-linejoin="round" stroke-linecap="round" stroke-opacity="1" stroke="#2d2d2d" stroke-miterlimit="50" stroke-width="1.2" transform="matrix(1,0,0,1,-417.4,-529.4)"></path><path id="SvgjsPath1017" d="M466 557H460C459.45 557 459 556.56 459 556V550V552 " fill-opacity="0" fill="#ffffff" stroke-dashoffset="0" stroke-linejoin="round" stroke-linecap="round" stroke-opacity="1" stroke="#2d2d2d" stroke-miterlimit="50" stroke-width="1.2" transform="matrix(1,0,0,1,-417.4,-529.4)"></path><path id="SvgjsPath1018" d="M443 564H444 " fill-opacity="0" fill="#ffffff" stroke-dashoffset="0" stroke-linejoin="round" stroke-linecap="round" stroke-opacity="1" stroke="#2d2d2d" stroke-miterlimit="50" stroke-width="1.200000047683716" transform="matrix(1,0,0,1,-417.4,-529.4)"></path><path id="SvgjsPath1019" d="M447 564H463 " fill-opacity="0" fill="#ffffff" stroke-dashoffset="0" stroke-linejoin="round" stroke-linecap="round" stroke-opacity="1" stroke="#2d2d2d" stroke-miterlimit="50" stroke-width="1.200000047683716" transform="matrix(1,0,0,1,-417.4,-529.4)"></path><path id="SvgjsPath1020" d="M443 568H444 " fill-opacity="0" fill="#ffffff" stroke-dashoffset="0" stroke-linejoin="round" stroke-linecap="round" stroke-opacity="1" stroke="#2d2d2d" stroke-miterlimit="50" stroke-width="1.200000047683716" transform="matrix(1,0,0,1,-417.4,-529.4)"></path><path id="SvgjsPath1021" d="M447 568H463 " fill-opacity="0" fill="#ffffff" stroke-dashoffset="0" stroke-linejoin="round" stroke-linecap="round" stroke-opacity="1" stroke="#2d2d2d" stroke-miterlimit="50" stroke-width="1.200000047683716" transform="matrix(1,0,0,1,-417.4,-529.4)"></path><path id="SvgjsPath1022" d="M443 572H444 " fill-opacity="0" fill="#ffffff" stroke-dashoffset="0" stroke-linejoin="round" stroke-linecap="round" stroke-opacity="1" stroke="#2d2d2d" stroke-miterlimit="50" stroke-width="1.200000047683716" transform="matrix(1,0,0,1,-417.4,-529.4)"></path><path id="SvgjsPath1023" d="M447 572H463 " fill-opacity="0" fill="#ffffff" stroke-dashoffset="0" stroke-linejoin="round" stroke-linecap="round" stroke-opacity="1" stroke="#2d2d2d" stroke-miterlimit="50" stroke-width="1.200000047683716" transform="matrix(1,0,0,1,-417.4,-529.4)"></path></svg>