<svg id="SvgjsSvg1015" xmlns="http://www.w3.org/2000/svg" version="1.1" xmlns:xlink="http://www.w3.org/1999/xlink" xmlns:svgjs="http://svgjs.com/svgjs" width="49" height="40" viewBox="0 0 49 40"><title>Fill 1</title><desc>Created with Avocode.</desc><defs id="SvgjsDefs1016"></defs><path id="SvgjsPath1017" d="M57.16 39.12C57.099999999999994 38.97 57.019999999999996 38.97 56.9 39.08C56.04 39.86 55.22 40.67 54.62 41.62C54.08 42.489999999999995 53.83 43.41 54.12 44.379999999999995C54.3 44.97 54.33 44.879999999999995 54.849999999999994 44.699999999999996C56.35999999999999 44.199999999999996 57.67999999999999 42.83 57.57999999999999 41.11C57.60999999999999 40.44 57.42999999999999 39.769999999999996 57.15999999999999 39.12 " fill="#3e9bd6" fill-opacity="1" transform="matrix(1,0,0,1,-19,-10)"></path><path id="SvgjsPath1018" d="M59.01 41.98C59.08 41.94 59.14 41.9 59.199999999999996 41.86C60.33 41.11 60.769999999999996 40.089999999999996 60.9 38.8C60.82 38.47 60.76 38.01 60.58 37.589999999999996C60.37 37.06999999999999 60.04 36.58 59.76 36.089999999999996C59.69 35.959999999999994 59.6 35.98 59.53 36.089999999999996C59.38 36.339999999999996 59.230000000000004 36.589999999999996 59.08 36.849999999999994C58.589999999999996 37.71999999999999 58.17 38.599999999999994 58.04 39.56999999999999C57.92 40.39999999999999 58.089999999999996 41.169999999999995 58.589999999999996 41.89999999999999C58.73 42.08999999999999 58.769999999999996 42.099999999999994 59.01 41.97999999999999 " fill="#3e9bd6" fill-opacity="1" transform="matrix(1,0,0,1,-19,-10)"></path><path id="SvgjsPath1019" d="M35.77 42.86C35.28 42.57 34.77 42.32 34.28 42.05C34.11 41.959999999999994 34.050000000000004 42 34.04 42.15C34.03 42.4 34.01 42.64 34 42.879999999999995C34 43.589999999999996 34.12 44.279999999999994 34.47 44.92999999999999C35.16 46.17999999999999 36.36 46.879999999999995 37.93 47.17999999999999C38.13 47.21999999999999 38.339999999999996 47.24999999999999 38.55 47.25999999999999C38.919999999999995 47.26999999999999 38.919999999999995 47.25999999999999 38.94 46.959999999999994C38.989999999999995 46.06999999999999 38.64 45.28999999999999 38.03 44.589999999999996C37.410000000000004 43.879999999999995 36.61 43.349999999999994 35.77 42.86 " fill="#3e9bd6" fill-opacity="1" transform="matrix(1,0,0,1,-19,-10)"></path><path id="SvgjsPath1020" d="M32.73 44.7C33.26 44.88 33.29 44.970000000000006 33.459999999999994 44.39C33.75999999999999 43.410000000000004 33.50999999999999 42.49 32.959999999999994 41.62C32.36999999999999 40.669999999999995 31.549999999999994 39.86 30.689999999999994 39.08C30.569999999999993 38.97 30.489999999999995 38.97 30.429999999999993 39.12C30.159999999999993 39.769999999999996 29.979999999999993 40.44 29.999999999999993 41.11C29.909999999999993 42.83 31.229999999999993 44.2 32.72999999999999 44.7 " fill="#3e9bd6" fill-opacity="1" transform="matrix(1,0,0,1,-19,-10)"></path><path id="SvgjsPath1021" d="M28.7 41.86C28.759999999999998 41.9 28.82 41.94 28.89 41.98C29.13 42.099999999999994 29.17 42.089999999999996 29.310000000000002 41.9C29.8 41.18 29.980000000000004 40.4 29.860000000000003 39.57C29.720000000000002 38.6 29.310000000000002 37.72 28.820000000000004 36.85C28.670000000000005 36.6 28.520000000000003 36.34 28.370000000000005 36.09C28.300000000000004 35.980000000000004 28.210000000000004 35.96 28.140000000000004 36.09C27.860000000000003 36.59 27.530000000000005 37.07 27.310000000000006 37.59C27.130000000000006 38.010000000000005 27.080000000000005 38.470000000000006 27.000000000000007 38.800000000000004C27.130000000000006 40.09 27.570000000000007 41.11000000000001 28.700000000000006 41.86000000000001 " fill="#3e9bd6" fill-opacity="1" transform="matrix(1,0,0,1,-19,-10)"></path><path id="SvgjsPath1022" d="M46.49 47.3C46.49 47.29 46.49 47.279999999999994 46.49 47.26C46.480000000000004 47.25 46.49 47.23 46.480000000000004 47.21C46.440000000000005 46.03 45.28 44.99 43.760000000000005 45C43.760000000000005 45 43.75000000000001 45 43.74 45C43.74 45 43.730000000000004 45 43.72 45C42.21 44.99 41.04 46.03 41 47.21C41 47.230000000000004 41 47.25 41 47.26C41 47.28 41 47.29 41 47.3C41 47.32 41 47.33 41 47.339999999999996C41 47.36 41 47.37 41 47.379999999999995C41 47.48 41.02 47.58 41.03 47.67999999999999C41.04 47.68999999999999 41.04 47.699999999999996 41.04 47.71999999999999C41.05 47.72999999999999 41.05 47.74999999999999 41.05 47.76999999999999C41.22 48.48999999999999 41.739999999999995 49.069999999999986 42.489999999999995 49.37999999999999C42.879999999999995 49.54999999999999 43.309999999999995 49.62999999999999 43.739999999999995 49.61999999999999C44.17999999999999 49.62999999999999 44.60999999999999 49.54999999999999 44.989999999999995 49.37999999999999C45.739999999999995 49.069999999999986 46.269999999999996 48.48999999999999 46.42999999999999 47.76999999999999C46.43999999999999 47.749999999999986 46.43999999999999 47.72999999999999 46.43999999999999 47.71999999999999C46.44999999999999 47.69999999999999 46.44999999999999 47.68999999999999 46.44999999999999 47.67999999999999C46.46999999999999 47.57999999999999 46.47999999999999 47.47999999999999 46.48999999999999 47.379999999999995C46.48999999999999 47.37 46.48999999999999 47.35999999999999 46.48999999999999 47.339999999999996C46.48999999999999 47.33 46.48999999999999 47.31999999999999 46.48999999999999 47.3 " fill="#3e9bd6" fill-opacity="1" transform="matrix(1,0,0,1,-19,-10)"></path><path id="SvgjsPath1023" d="M59.39 46.39C59.33 46.37 59.27 46.34 59.21 46.33C58.25 46.15 57.29 46.01 56.08 46C55.589999999999996 45.99 54.879999999999995 46.09 54.18 46.25C53.089999999999996 46.5 52.09 46.92 51.22 47.54C50.93 47.74 50.94 47.75 51.16 47.99C51.559999999999995 48.42 52.099999999999994 48.68 52.709999999999994 48.830000000000005C53.55 49.040000000000006 54.379999999999995 49.00000000000001 55.209999999999994 48.790000000000006C56.63999999999999 48.45 57.85999999999999 47.790000000000006 58.93999999999999 46.95C59.10999999999999 46.82 59.26999999999999 46.690000000000005 59.42999999999999 46.56C59.529999999999994 46.480000000000004 59.519999999999996 46.42 59.38999999999999 46.39 " fill="#3e9bd6" fill-opacity="1" transform="matrix(1,0,0,1,-19,-10)"></path><path id="SvgjsPath1024" d="M63.01 42C62.32 42.04 61.629999999999995 42.07 60.949999999999996 42.16C58.959999999999994 42.44 57.379999999999995 43.29 56.19 44.66C55.919999999999995 44.98 55.919999999999995 44.989999999999995 56.309999999999995 45.22C56.8 45.5 57.339999999999996 45.64 57.98 45.64C58.5 45.660000000000004 59.019999999999996 45.55 59.519999999999996 45.34C61.169999999999995 44.660000000000004 62.279999999999994 43.53 63.15 42.21C63.269999999999996 42.04 63.24 41.99 63.01 42 " fill="#3e9bd6" fill-opacity="1" transform="matrix(1,0,0,1,-19,-10)"></path><path id="SvgjsPath1025" d="M52.47 44.93C52.83 44.28 52.94 43.589999999999996 52.949999999999996 42.88C52.92999999999999 42.64 52.919999999999995 42.39 52.91 42.150000000000006C52.9 42.00000000000001 52.839999999999996 41.96000000000001 52.669999999999995 42.050000000000004C52.169999999999995 42.32000000000001 51.669999999999995 42.57000000000001 51.17999999999999 42.85C50.33999999999999 43.35 49.529999999999994 43.88 48.919999999999995 44.58C48.3 45.29 47.949999999999996 46.07 47.99999999999999 46.96C48.019999999999996 47.26 48.029999999999994 47.27 48.39999999999999 47.25C48.599999999999994 47.25 48.80999999999999 47.22 49.00999999999999 47.18C50.57999999999999 46.88 51.78999999999999 46.18 52.46999999999999 44.93 " fill="#3e9bd6" fill-opacity="1" transform="matrix(1,0,0,1,-19,-10)"></path><path id="SvgjsPath1026" d="M65.46 37.03C64.57 37.27 63.709999999999994 37.54 62.919999999999995 37.96C61.529999999999994 38.7 60.629999999999995 39.75 60.059999999999995 41.03C59.949999999999996 41.28 59.96999999999999 41.32 60.279999999999994 41.410000000000004C60.57999999999999 41.50000000000001 60.89999999999999 41.550000000000004 61.17999999999999 41.6C61.459999999999994 41.56 61.68999999999999 41.54 61.92999999999999 41.49C62.88999999999999 41.29 63.599999999999994 40.77 64.17999999999999 40.120000000000005C64.94999999999999 39.260000000000005 65.39999999999999 38.260000000000005 65.72 37.220000000000006C65.78999999999999 37.00000000000001 65.74 36.96000000000001 65.46 37.03000000000001 " fill="#3e9bd6" fill-opacity="1" transform="matrix(1,0,0,1,-19,-10)"></path><path id="SvgjsPath1027" d="M67.14 31.23C67.13 30.95 67.12 30.95 66.83 31.1C65.44 31.82 64.3 32.730000000000004 63.629999999999995 34.02C63.309999999999995 34.660000000000004 63.10999999999999 35.32 63.019999999999996 36C62.98 36.28 62.989999999999995 36.28 63.31999999999999 36.34C63.75999999999999 36.42 64.17999999999999 36.36000000000001 64.58 36.2C65.51 35.82 66.08 35.160000000000004 66.47 34.39C66.92999999999999 33.46 67.08 32.47 67.14 31.44C67.14 31.39 67.14 31.310000000000002 67.14 31.23 " fill="#3e9bd6" fill-opacity="1" transform="matrix(1,0,0,1,-19,-10)"></path><path id="SvgjsPath1028" d="M64.11 31.72C64.12 31.919999999999998 64.26 31.959999999999997 64.46 31.939999999999998C64.82 31.909999999999997 65.14 31.79 65.42999999999999 31.619999999999997C66.19 31.159999999999997 66.49999999999999 30.49 66.67999999999999 29.769999999999996C66.99 28.559999999999995 66.83999999999999 27.359999999999996 66.52 26.169999999999995C66.5 26.109999999999996 66.46 26.059999999999995 66.42999999999999 25.999999999999993C66.36 26.039999999999992 66.28999999999999 26.05999999999999 66.24 26.109999999999992C64.83999999999999 27.41999999999999 63.99999999999999 28.91999999999999 63.99999999999999 30.709999999999994C64.03999999999999 31.049999999999994 64.08 31.379999999999995 64.11 31.719999999999995 " fill="#3e9bd6" fill-opacity="1" transform="matrix(1,0,0,1,-19,-10)"></path><path id="SvgjsPath1029" d="M61.63 37.83C62.46 36.92 62.7 35.879999999999995 62.49 34.769999999999996C62.29 33.73 61.620000000000005 32.87 60.77 32.12C60.580000000000005 31.949999999999996 60.550000000000004 31.949999999999996 60.49 32.18C60.230000000000004 33.11 60.02 34.05 60 35.01C60.02 35.269999999999996 60.01 35.519999999999996 60.05 35.78C60.16 36.56 60.48 37.26 61.129999999999995 37.85C61.379999999999995 38.07 61.4 38.08 61.629999999999995 37.83 " fill="#3e9bd6" fill-opacity="1" transform="matrix(1,0,0,1,-19,-10)"></path><path id="SvgjsPath1030" d="M63.03 24.74C63.09 25.5 63.28 26.229999999999997 63.59 26.95C63.71 27.22 63.760000000000005 27.23 64.08 27.11C64.51 26.95 64.81 26.68 65.01 26.33C65.29 25.869999999999997 65.4 25.389999999999997 65.4 24.88C65.42 23.52 64.86 22.299999999999997 64.13000000000001 21.11C64.04 20.96 63.99000000000001 20.96 63.90000000000001 21.13C63.33000000000001 22.15 63.01000000000001 23.21 63.000000000000014 24.25C63.02000000000002 24.47 63.02000000000002 24.61 63.030000000000015 24.74 " fill="#3e9bd6" fill-opacity="1" transform="matrix(1,0,0,1,-19,-10)"></path><path id="SvgjsPath1031" d="M63.57 33.36C63.79 32.9 63.910000000000004 32.43 63.89 31.939999999999998C63.88 31.749999999999996 63.88 31.56 63.85 31.369999999999997C63.620000000000005 29.919999999999998 62.64 28.879999999999995 61.260000000000005 28.08C61.190000000000005 28.04 61.11000000000001 28.02 61.040000000000006 28C61.03000000000001 28.06 61.00000000000001 28.13 61.00000000000001 28.19C61.050000000000004 29.12 61.09000000000001 30.05 61.300000000000004 30.96C61.45 31.59 61.67 32.2 62.13 32.71C62.38 32.99 62.67 33.25 62.980000000000004 33.480000000000004C63.35 33.75000000000001 63.39 33.720000000000006 63.57000000000001 33.36000000000001 " fill="#3e9bd6" fill-opacity="1" transform="matrix(1,0,0,1,-19,-10)"></path><path id="SvgjsPath1032" d="M62.8 21.89C62.91 22.04 63.029999999999994 22.060000000000002 63.19 21.95C63.519999999999996 21.73 63.699999999999996 21.439999999999998 63.809999999999995 21.11C63.98 20.599999999999998 63.9 20.09 63.76 19.59C63.36 18.2 62.39 17.09 61.269999999999996 16.06C61.16 15.959999999999999 61.11 15.989999999999998 61.099999999999994 16.099999999999998C61.059999999999995 16.439999999999998 61.029999999999994 16.77 60.99999999999999 17.11C60.989999999999995 18.52 61.43999999999999 19.82 62.209999999999994 21.06C62.38999999999999 21.34 62.60999999999999 21.61 62.8 21.889999999999997 " fill="#3e9bd6" fill-opacity="1" transform="matrix(1,0,0,1,-19,-10)"></path><path id="SvgjsPath1033" d="M56.05 13.28C56.72 15.17 57.93 16.78 59.629999999999995 18.13C60.08 18.48 60.23 18.45 60.41 17.95C60.459999999999994 17.81 60.47 17.66 60.51 17.43C60.43 17.16 60.35 16.81 60.199999999999996 16.49C59.41 14.889999999999999 57.839999999999996 13.909999999999998 56.17999999999999 13.009999999999998C56.13999999999999 12.989999999999998 56.06999999999999 12.999999999999998 56.019999999999996 13.009999999999998C55.99999999999999 13.009999999999998 55.99999999999999 13.079999999999998 55.99999999999999 13.119999999999997C56.00999999999999 13.169999999999998 56.029999999999994 13.229999999999997 56.04999999999999 13.279999999999998 " fill="#3e9bd6" fill-opacity="1" transform="matrix(1,0,0,1,-19,-10)"></path><path id="SvgjsPath1034" d="M63.74 26.46C63.330000000000005 24.740000000000002 62.04 23.67 60.18 23.02C60 22.96 59.98 23.05 60.01 23.16C60.089999999999996 23.41 60.19 23.65 60.269999999999996 23.89C60.58 24.77 60.92999999999999 25.64 61.459999999999994 26.45C61.779999999999994 26.939999999999998 62.18999999999999 27.37 62.739999999999995 27.689999999999998C62.98 27.83 63.269999999999996 27.929999999999996 63.53999999999999 28.04C63.64999999999999 28.08 63.71999999999999 28.05 63.739999999999995 27.939999999999998C63.779999999999994 27.7 63.81999999999999 27.459999999999997 63.85999999999999 27.229999999999997C63.81999999999999 26.959999999999997 63.79999999999999 26.709999999999997 63.739999999999995 26.459999999999997 " fill="#3e9bd6" fill-opacity="1" transform="matrix(1,0,0,1,-19,-10)"></path><path id="SvgjsPath1035" d="M50.99 11.8C51.800000000000004 12.530000000000001 52.760000000000005 13.09 53.730000000000004 13.63C54.18000000000001 13.870000000000001 54.64 14.08 55.1 14.290000000000001C55.38 14.420000000000002 55.46 14.39 55.52 14.120000000000001C55.540000000000006 14.07 55.540000000000006 14.020000000000001 55.550000000000004 13.97C55.52 13.57 55.34 13.23 55.07000000000001 12.92C54.68000000000001 12.48 54.220000000000006 12.08 53.690000000000005 11.75C52.330000000000005 10.9 50.790000000000006 10.39 49.18000000000001 10.03C49.120000000000005 10.01 49.06000000000001 10.01 49.00000000000001 10C49.03000000000001 10.05 49.040000000000006 10.12 49.080000000000005 10.16C49.720000000000006 10.71 50.370000000000005 11.24 50.99 11.8 " fill="#3e9bd6" fill-opacity="1" transform="matrix(1,0,0,1,-19,-10)"></path><path id="SvgjsPath1036" d="M58 20.01C58.02 20.060000000000002 58.02 20.12 58.05 20.16C58.459999999999994 20.74 58.86 21.32 59.279999999999994 21.89C59.73 22.48 60.24999999999999 23.03 60.879999999999995 23.490000000000002C61.379999999999995 23.85 61.92999999999999 24.150000000000002 62.599999999999994 24.23C62.87 24.26 62.88999999999999 24.25 62.879999999999995 23.96C62.85999999999999 23.85 62.839999999999996 23.66 62.779999999999994 23.48C62.199999999999996 21.59 60.50999999999999 20.35 58.19 20C58.129999999999995 19.99 58.059999999999995 20.01 58 20.01 " fill="#3e9bd6" fill-opacity="1" transform="matrix(1,0,0,1,-19,-10)"></path><path id="SvgjsPath1037" d="M58.99 19.24C59.25 19.279999999999998 59.53 19.27 59.800000000000004 19.279999999999998C59.910000000000004 19.279999999999998 59.970000000000006 19.22 59.93000000000001 19.119999999999997C59.900000000000006 19.04 59.86000000000001 18.97 59.830000000000005 18.889999999999997C59.010000000000005 17.33 57.07000000000001 16.009999999999998 54.42 15.999999999999996C54.38 15.999999999999996 54.27 16.009999999999998 54.160000000000004 16.029999999999998C54.1 16.029999999999998 54.050000000000004 16.06 54.00000000000001 16.08C54.02000000000001 16.11 54.040000000000006 16.15 54.07000000000001 16.18C55.09000000000001 17 56.09000000000001 17.84 57.220000000000006 18.54C57.760000000000005 18.869999999999997 58.330000000000005 19.14 58.99000000000001 19.24 " fill="#3e9bd6" fill-opacity="1" transform="matrix(1,0,0,1,-19,-10)"></path><path id="SvgjsPath1038" d="M55.72 16.31C55.94 16.24 55.94 16.209999999999997 55.8 16.06C55.779999999999994 16.04 55.76 16.02 55.739999999999995 15.999999999999998C54.44 14.749999999999998 52.81999999999999 14.059999999999999 50.839999999999996 14.04C50.36 13.93 49.91 14.079999999999998 49.459999999999994 14.149999999999999C49.3 14.169999999999998 49.14999999999999 14.229999999999999 48.99999999999999 14.269999999999998C49.13999999999999 14.329999999999998 49.279999999999994 14.379999999999997 49.40999999999999 14.449999999999998C50.18999999999999 14.809999999999997 50.96999999999999 15.189999999999998 51.75999999999999 15.529999999999998C52.53999999999999 15.879999999999997 53.349999999999994 16.169999999999998 54.209999999999994 16.339999999999996C54.709999999999994 16.429999999999996 55.21999999999999 16.469999999999995 55.71999999999999 16.309999999999995 " fill="#3e9bd6" fill-opacity="1" transform="matrix(1,0,0,1,-19,-10)"></path><path id="SvgjsPath1039" d="M36.28 47.53C35.4 46.92 34.4 46.5 33.31 46.25C32.620000000000005 46.09 31.910000000000004 45.99 31.410000000000004 46C30.200000000000003 46.01 29.240000000000002 46.15 28.290000000000003 46.33C28.230000000000004 46.339999999999996 28.17 46.37 28.110000000000003 46.379999999999995C27.980000000000004 46.419999999999995 27.970000000000002 46.48 28.060000000000002 46.559999999999995C28.220000000000002 46.69 28.39 46.81999999999999 28.55 46.949999999999996C29.630000000000003 47.79 30.85 48.44 32.28 48.79C33.11 48.99 33.95 49.04 34.79 48.83C35.4 48.68 35.93 48.42 36.33 47.989999999999995C36.559999999999995 47.74999999999999 36.559999999999995 47.739999999999995 36.28 47.529999999999994 " fill="#3e9bd6" fill-opacity="1" transform="matrix(1,0,0,1,-19,-10)"></path><path id="SvgjsPath1040" d="M29.23 45.64C29.87 45.64 30.42 45.5 30.9 45.22C31.299999999999997 44.99 31.299999999999997 44.98 31.02 44.66C29.84 43.29 28.259999999999998 42.44 26.27 42.16C25.59 42.06999999999999 24.9 42.04 24.21 42C23.98 41.99 23.95 42.04 24.060000000000002 42.21C24.94 43.53 26.05 44.660000000000004 27.700000000000003 45.34C28.19 45.550000000000004 28.720000000000002 45.660000000000004 29.230000000000004 45.64 " fill="#3e9bd6" fill-opacity="1" transform="matrix(1,0,0,1,-19,-10)"></path><path id="SvgjsPath1041" d="M25.57 41.6C25.85 41.550000000000004 26.16 41.5 26.46 41.410000000000004C26.78 41.32 26.79 41.28 26.68 41.03C26.11 39.75 25.21 38.7 23.83 37.96C23.04 37.54 22.169999999999998 37.27 21.29 37.03C21.009999999999998 36.96 20.96 37 21.029999999999998 37.22C21.349999999999998 38.26 21.799999999999997 39.26 22.569999999999997 40.12C23.139999999999997 40.769999999999996 23.859999999999996 41.29 24.819999999999997 41.489999999999995C25.049999999999997 41.53999999999999 25.289999999999996 41.559999999999995 25.569999999999997 41.599999999999994 " fill="#3e9bd6" fill-opacity="1" transform="matrix(1,0,0,1,-19,-10)"></path><path id="SvgjsPath1042" d="M22.56 36.2C22.959999999999997 36.36 23.38 36.42 23.82 36.34C24.15 36.28 24.16 36.28 24.12 36C24.03 35.32 23.830000000000002 34.66 23.51 34.02C22.84 32.730000000000004 21.700000000000003 31.820000000000004 20.310000000000002 31.1C20.01 30.950000000000003 20.01 30.950000000000003 20.000000000000004 31.23C20.000000000000004 31.31 20.000000000000004 31.39 20.000000000000004 31.44C20.060000000000002 32.47 20.210000000000004 33.46 20.670000000000005 34.39C21.060000000000006 35.160000000000004 21.630000000000006 35.82 22.560000000000006 36.2 " fill="#3e9bd6" fill-opacity="1" transform="matrix(1,0,0,1,-19,-10)"></path><path id="SvgjsPath1043" d="M21.42 31.62C21.71 31.790000000000003 22.03 31.91 22.39 31.94C22.59 31.96 22.73 31.92 22.740000000000002 31.720000000000002C22.770000000000003 31.380000000000003 22.810000000000002 31.05 22.85 30.71C22.84 28.92 22.01 27.42 20.61 26.11C20.56 26.06 20.49 26.04 20.419999999999998 26C20.389999999999997 26.06 20.349999999999998 26.11 20.33 26.17C20.009999999999998 27.360000000000003 19.86 28.560000000000002 20.159999999999997 29.770000000000003C20.349999999999998 30.490000000000002 20.659999999999997 31.160000000000004 21.419999999999998 31.620000000000005 " fill="#3e9bd6" fill-opacity="1" transform="matrix(1,0,0,1,-19,-10)"></path><path id="SvgjsPath1044" d="M26.43 37.85C27.08 37.27 27.4 36.56 27.509999999999998 35.78C27.549999999999997 35.52 27.54 35.27 27.56 35.01C27.54 34.05 27.33 33.11 27.07 32.18C27.01 31.95 26.98 31.95 26.79 32.12C25.939999999999998 32.879999999999995 25.27 33.73 25.07 34.769999999999996C24.86 35.879999999999995 25.1 36.919999999999995 25.93 37.83C26.16 38.08 26.18 38.08 26.43 37.85 " fill="#3e9bd6" fill-opacity="1" transform="matrix(1,0,0,1,-19,-10)"></path><path id="SvgjsPath1045" d="M22.32 27.11C22.65 27.23 22.69 27.23 22.81 26.95C23.119999999999997 26.23 23.32 25.5 23.369999999999997 24.74C23.38 24.61 23.389999999999997 24.47 23.4 24.25C23.4 23.21 23.08 22.15 22.509999999999998 21.13C22.409999999999997 20.959999999999997 22.36 20.959999999999997 22.27 21.11C21.55 22.3 20.98 23.52 21 24.88C21.01 25.39 21.12 25.869999999999997 21.39 26.33C21.6 26.68 21.89 26.95 22.32 27.11 " fill="#3e9bd6" fill-opacity="1" transform="matrix(1,0,0,1,-19,-10)"></path><path id="SvgjsPath1046" d="M23.92 33.48C24.23 33.25 24.520000000000003 32.989999999999995 24.76 32.709999999999994C25.220000000000002 32.199999999999996 25.44 31.589999999999993 25.59 30.959999999999994C25.81 30.049999999999994 25.85 29.119999999999994 25.9 28.189999999999994C25.9 28.129999999999995 25.869999999999997 28.059999999999995 25.849999999999998 27.999999999999993C25.779999999999998 28.029999999999994 25.7 28.039999999999992 25.639999999999997 28.07999999999999C24.249999999999996 28.879999999999992 23.269999999999996 29.91999999999999 23.039999999999996 31.36999999999999C23.009999999999994 31.55999999999999 23.009999999999994 31.74999999999999 22.999999999999996 31.93999999999999C22.979999999999997 32.42999999999999 23.109999999999996 32.89999999999999 23.329999999999995 33.34999999999999C23.499999999999996 33.719999999999985 23.549999999999994 33.749999999999986 23.919999999999995 33.47999999999999 " fill="#3e9bd6" fill-opacity="1" transform="matrix(1,0,0,1,-19,-10)"></path><path id="SvgjsPath1047" d="M23.72 21.95C23.88 22.06 24 22.04 24.099999999999998 21.89C24.299999999999997 21.61 24.52 21.34 24.689999999999998 21.060000000000002C25.459999999999997 19.820000000000004 25.919999999999998 18.520000000000003 25.909999999999997 17.110000000000003C25.869999999999997 16.770000000000003 25.839999999999996 16.44 25.809999999999995 16.1C25.799999999999994 15.990000000000002 25.749999999999996 15.96 25.639999999999993 16.060000000000002C24.519999999999992 17.090000000000003 23.539999999999992 18.200000000000003 23.14999999999999 19.590000000000003C22.999999999999993 20.090000000000003 22.929999999999993 20.600000000000005 23.09999999999999 21.110000000000003C23.199999999999992 21.44 23.38999999999999 21.740000000000002 23.71999999999999 21.950000000000003 " fill="#3e9bd6" fill-opacity="1" transform="matrix(1,0,0,1,-19,-10)"></path><path id="SvgjsPath1048" d="M27.88 18.13C29.59 16.779999999999998 30.79 15.169999999999998 31.47 13.28C31.49 13.229999999999999 31.5 13.17 31.509999999999998 13.12C31.52 13.08 31.509999999999998 13.02 31.499999999999996 13.01C31.449999999999996 13 31.369999999999997 12.99 31.329999999999995 13.02C29.669999999999995 13.91 28.109999999999996 14.89 27.319999999999993 16.49C27.159999999999993 16.81 27.089999999999993 17.16 26.999999999999993 17.43C27.049999999999994 17.66 27.05999999999999 17.81 27.109999999999992 17.95C27.279999999999994 18.45 27.43999999999999 18.48 27.879999999999992 18.13 " fill="#3e9bd6" fill-opacity="1" transform="matrix(1,0,0,1,-19,-10)"></path><path id="SvgjsPath1049" d="M23 27.23C23.04 27.46 23.08 27.7 23.12 27.94C23.14 28.05 23.21 28.080000000000002 23.32 28.040000000000003C23.59 27.930000000000003 23.88 27.830000000000002 24.12 27.69C24.67 27.37 25.080000000000002 26.94 25.400000000000002 26.450000000000003C25.930000000000003 25.640000000000004 26.28 24.770000000000003 26.590000000000003 23.890000000000004C26.67 23.650000000000006 26.770000000000003 23.400000000000006 26.850000000000005 23.160000000000004C26.880000000000006 23.050000000000004 26.860000000000007 22.960000000000004 26.680000000000003 23.020000000000003C24.820000000000004 23.67 23.530000000000005 24.740000000000002 23.120000000000005 26.460000000000004C23.060000000000006 26.710000000000004 23.040000000000006 26.960000000000004 23.000000000000004 27.230000000000004 " fill="#3e9bd6" fill-opacity="1" transform="matrix(1,0,0,1,-19,-10)"></path><path id="SvgjsPath1050" d="M31.44 14.3C31.900000000000002 14.08 32.370000000000005 13.870000000000001 32.81 13.63C33.79 13.09 34.75 12.530000000000001 35.56 11.8C36.18 11.25 36.830000000000005 10.71 37.47 10.16C37.51 10.120000000000001 37.519999999999996 10.05 37.55 10C37.489999999999995 10.01 37.419999999999995 10.01 37.37 10.03C35.75 10.389999999999999 34.209999999999994 10.899999999999999 32.849999999999994 11.75C32.31999999999999 12.08 31.869999999999994 12.48 31.479999999999993 12.92C31.199999999999992 13.23 31.029999999999994 13.57 30.999999999999993 13.97C31.009999999999994 14.020000000000001 31.009999999999994 14.07 31.019999999999992 14.13C31.089999999999993 14.39 31.159999999999993 14.42 31.439999999999994 14.3 " fill="#3e9bd6" fill-opacity="1" transform="matrix(1,0,0,1,-19,-10)"></path><path id="SvgjsPath1051" d="M25.27 24.23C25.95 24.150000000000002 26.5 23.85 27 23.490000000000002C27.63 23.03 28.15 22.48 28.6 21.89C29.020000000000003 21.32 29.42 20.740000000000002 29.830000000000002 20.16C29.860000000000003 20.12 29.860000000000003 20.06 29.880000000000003 20.01C29.820000000000004 20.01 29.750000000000004 19.990000000000002 29.69 20C27.37 20.35 25.68 21.59 25.1 23.48C25.040000000000003 23.66 25.020000000000003 23.85 25 23.96C24.99 24.25 25.01 24.26 25.27 24.23 " fill="#3e9bd6" fill-opacity="1" transform="matrix(1,0,0,1,-19,-10)"></path><path id="SvgjsPath1052" d="M32.87 16.18C32.9 16.15 32.919999999999995 16.11 32.94 16.08C32.89 16.06 32.839999999999996 16.04 32.79 16.029999999999998C32.68 16.009999999999998 32.57 15.999999999999998 32.519999999999996 15.999999999999998C29.879999999999995 16.009999999999998 27.929999999999996 17.33 27.119999999999997 18.889999999999997C27.08 18.969999999999995 27.04 19.039999999999996 27.009999999999998 19.119999999999997C26.97 19.22 27.029999999999998 19.279999999999998 27.15 19.279999999999998C27.419999999999998 19.279999999999998 27.689999999999998 19.279999999999998 27.959999999999997 19.24C28.619999999999997 19.139999999999997 29.189999999999998 18.869999999999997 29.72 18.54C30.86 17.84 31.849999999999998 17 32.87 16.18 " fill="#3e9bd6" fill-opacity="1" transform="matrix(1,0,0,1,-19,-10)"></path><path id="SvgjsPath1053" d="M37.49 14.45C37.620000000000005 14.379999999999999 37.760000000000005 14.33 37.9 14.27C37.74 14.23 37.589999999999996 14.17 37.44 14.15C36.98 14.08 36.54 13.93 36.05 14.040000000000001C34.08 14.06 32.459999999999994 14.75 31.159999999999997 16C31.139999999999997 16.02 31.119999999999997 16.04 31.099999999999998 16.06C30.95 16.209999999999997 30.959999999999997 16.24 31.179999999999996 16.31C31.679999999999996 16.47 32.17999999999999 16.43 32.69 16.34C33.55 16.169999999999998 34.36 15.879999999999999 35.14 15.53C35.93 15.19 36.7 14.809999999999999 37.49 14.45 " fill="#3e9bd6" fill-opacity="1" transform="matrix(1,0,0,1,-19,-10)"></path><path id="SvgjsPath1054" d="M29 23.82V24.54L43.83 19.72L58.65 24.54V23.82L43.83 19Z " fill="#3e9bd6" fill-opacity="1" transform="matrix(1,0,0,1,-19,-10)"></path><path id="SvgjsPath1055" d="M56.4 26.32C56.4 25.990000000000002 56.19 25.7 55.879999999999995 25.6C55.38999999999999 25.44 54.88999999999999 25.8 54.88999999999999 26.32V34.59C54.88999999999999 35.1 55.38999999999999 35.46 55.879999999999995 35.31C56.19 35.21 56.4 34.92 56.4 34.59ZM53.57 25.4C53.57 25.07 53.36 24.779999999999998 53.05 24.68L52.76 24.59C52.269999999999996 24.43 51.769999999999996 24.79 51.769999999999996 25.3V35.6C51.769999999999996 36.120000000000005 52.269999999999996 36.480000000000004 52.76 36.32L53.05 36.23C53.36 36.129999999999995 53.57 35.839999999999996 53.57 35.51ZM49.95 24.22C49.95 23.9 49.74 23.61 49.43 23.509999999999998L48.37 23.159999999999997C47.879999999999995 22.999999999999996 47.379999999999995 23.369999999999997 47.379999999999995 23.879999999999995V37.029999999999994C47.379999999999995 37.53999999999999 47.879999999999995 37.91 48.37 37.74999999999999L49.43 37.39999999999999C49.74 37.29999999999999 49.95 37.00999999999999 49.95 36.67999999999999ZM44.82 22.97C44.82 22.41 44.47 21.91 43.94 21.72L40.099999999999994 22.97C39.739999999999995 23.09 39.489999999999995 23.43 39.489999999999995 23.81V24.57C39.71999999999999 24.57 39.91 24.57 40.099999999999994 24.57C40.419999999999995 24.580000000000002 40.739999999999995 24.55 41.059999999999995 24.61C42.129999999999995 24.79 42.879999999999995 25.56 43.44 26.54C44.07 27.64 44.199999999999996 28.89 44.21 30.18C44.21 31.169999999999998 44.12 32.19 43.86 33.14C43.32 35.03 41.93 36.55 40.019999999999996 36.32C39.87 36.3 39.67999999999999 36.28 39.489999999999995 36.28V37.1C39.489999999999995 37.480000000000004 39.739999999999995 37.82 40.099999999999994 37.940000000000005L43.94 39.18000000000001C44.47 39.00000000000001 44.82 38.50000000000001 44.82 37.940000000000005ZM39.49 35.19C39.79 35.349999999999994 40.080000000000005 35.23 40.300000000000004 35.099999999999994C40.35 35.06999999999999 40.43000000000001 34.989999999999995 40.480000000000004 34.94C41.02 34.349999999999994 41.1 33.36 41.190000000000005 32.57C41.25000000000001 31.98 41.28000000000001 31.38 41.290000000000006 30.78C41.300000000000004 30.450000000000003 41.290000000000006 30.12 41.290000000000006 29.790000000000003C41.28000000000001 29.580000000000002 41.27 29.37 41.260000000000005 29.160000000000004C41.230000000000004 28.660000000000004 41.18000000000001 28.170000000000005 41.09 27.680000000000003C41.040000000000006 27.440000000000005 40.99 27.200000000000003 40.93000000000001 26.960000000000004C40.870000000000005 26.720000000000006 40.81000000000001 26.480000000000004 40.71000000000001 26.270000000000003C40.64000000000001 26.120000000000005 40.56000000000001 25.990000000000002 40.43000000000001 25.890000000000004C40.290000000000006 25.770000000000003 40.11000000000001 25.700000000000003 39.92000000000001 25.670000000000005C39.82000000000001 25.660000000000004 39.71000000000001 25.650000000000006 39.61000000000001 25.680000000000007C39.59 25.69000000000001 39.53000000000001 25.700000000000006 39.49000000000001 25.730000000000008ZM37.41 26.25C37.41 26.18 37.4 26.14 37.4 26.11C37.25 26.11 37.16 26.169999999999998 37.059999999999995 26.24C36.669999999999995 26.5 36.49999999999999 26.84 36.38999999999999 27.32C36.209999999999994 28.1 36.11999999999999 28.91 36.11999999999999 29.72C36.11999999999999 30.52 36.10999999999999 31.32 36.16999999999999 32.11C36.19999999999999 32.56 36.23999999999999 33.03 36.33999999999999 33.47C36.40999999999999 33.79 36.46999999999999 34.14 36.69999999999999 34.36C36.91999999999999 34.57 37.11999999999999 34.71 37.40999999999999 34.839999999999996ZM57.89 26.25C57.89 26.25 57.44 26.07 57.44 26.39V34.42C57.44 34.730000000000004 57.89 34.65 57.89 34.65V35.379999999999995L43.95 39.91L36.77 37.56999999999999V36.849999999999994C36.77 36.849999999999994 37.410000000000004 37.14999999999999 37.410000000000004 36.67999999999999V35.809999999999995C37.28 35.739999999999995 37.120000000000005 35.669999999999995 37.02 35.60999999999999C36.11000000000001 35.199999999999996 35.46 34.58999999999999 35.080000000000005 33.68999999999999C34.970000000000006 33.44999999999999 34.89000000000001 33.18999999999999 34.81 32.92999999999999C34.730000000000004 32.65999999999999 34.660000000000004 32.379999999999995 34.61 32.08999999999999C34.6 32.04999999999999 34.589999999999996 31.99999999999999 34.589999999999996 31.95999999999999C34.54 31.66999999999999 34.489999999999995 31.38999999999999 34.47 31.09999999999999C34.46 30.96999999999999 34.449999999999996 30.82999999999999 34.44 30.68999999999999C34.44 30.59999999999999 34.44 30.49999999999999 34.44 30.39999999999999C34.44 30.359999999999992 34.43 30.319999999999993 34.43 30.27999999999999C34.43 30.14999999999999 34.44 30.00999999999999 34.44 29.86999999999999C34.44 29.86999999999999 34.44 29.86999999999999 34.44 29.85999999999999C34.53 27.97999999999999 35.199999999999996 26.059999999999988 36.949999999999996 25.31999999999999C37.099999999999994 25.24999999999999 37.239999999999995 25.19999999999999 37.41 25.12999999999999V25.059999999999988C37.41 24.459999999999987 36.83 24.029999999999987 36.26 24.219999999999988L35.419999999999995 24.489999999999988C35.059999999999995 24.60999999999999 34.809999999999995 24.94999999999999 34.809999999999995 25.329999999999988V26.729999999999986C34.089999999999996 28.019999999999985 33.9 29.679999999999986 34.029999999999994 31.139999999999986C34.089999999999996 31.839999999999986 34.24999999999999 32.87999999999999 34.669999999999995 33.86999999999998C34.709999999999994 33.969999999999985 34.76 34.05999999999998 34.809999999999995 34.149999999999984V35.579999999999984C34.809999999999995 35.95999999999999 35.059999999999995 36.29999999999998 35.419999999999995 36.40999999999998L35.449999999999996 36.429999999999986V37.149999999999984L32.839999999999996 36.29999999999998V35.579999999999984C32.839999999999996 35.579999999999984 33.43 35.749999999999986 33.43 35.26999999999998V26.34999999999998C33.43 25.74999999999998 32.85 25.32999999999998 32.28 25.50999999999998L32.1 25.56999999999998C31.740000000000002 25.68999999999998 31.490000000000002 26.02999999999998 31.490000000000002 26.40999999999998V34.70999999999998C31.490000000000002 35.24999999999998 31.970000000000002 35.28999999999998 31.970000000000002 35.28999999999998V36.00999999999998L30.000000000000004 35.379999999999974V34.64999999999998C30.000000000000004 34.64999999999998 30.450000000000003 34.939999999999976 30.450000000000003 34.589999999999975V26.339999999999975C30.450000000000003 25.979999999999976 30.000000000000004 26.249999999999975 30.000000000000004 26.249999999999975V25.529999999999976L43.940000000000005 20.999999999999975L57.89 25.529999999999976Z " fill="#3e9bd6" fill-opacity="1" transform="matrix(1,0,0,1,-19,-10)"></path><path id="SvgjsPath1056" d="M37.37 18.37C37.37 17.76 37.779999999999994 17.04 38.279999999999994 16.75C38.78999999999999 16.46 39.199999999999996 16.71 39.199999999999996 17.31C39.199999999999996 17.919999999999998 38.79 18.64 38.279999999999994 18.93C37.779999999999994 19.23 37.37 18.97 37.37 18.37ZM43.83 12L29 22.11V22.83L43.83 18.02L58.65 22.83V22.11Z " fill="#3e9bd6" fill-opacity="1" transform="matrix(1,0,0,1,-19,-10)"></path><path id="SvgjsPath1057" d="M55.77 38.66C55.99 38.459999999999994 56.24 38.349999999999994 56.510000000000005 38.349999999999994C56.550000000000004 38.349999999999994 56.64000000000001 38.35999999999999 56.74 38.38999999999999C56.78 38.24999999999999 56.82 38.129999999999995 56.86 37.99999999999999L43.39 42.379999999999995L30 38.029999999999994C30.04 38.14999999999999 30.08 38.25999999999999 30.12 38.38999999999999C30.220000000000002 38.35999999999999 30.3 38.349999999999994 30.35 38.349999999999994C30.62 38.349999999999994 30.860000000000003 38.459999999999994 31.09 38.66C31.7 39.22 32.37 39.849999999999994 32.95 40.589999999999996L43.39 43.98L53.93 40.559999999999995C54.51 39.839999999999996 55.17 39.209999999999994 55.77 38.66 " fill="#3e9bd6" fill-opacity="1" transform="matrix(1,0,0,1,-19,-10)"></path><path id="SvgjsPath1058" d="M57.59 36L43.25 40.66L29 36.029999999999994C29.15 36.3 29.31 36.589999999999996 29.45 36.89999999999999L43.25 41.379999999999995L57.13 36.87C57.28 36.559999999999995 57.43 36.269999999999996 57.59 36 " fill="#3e9bd6" fill-opacity="1" transform="matrix(1,0,0,1,-19,-10)"></path></svg>