<svg id="SvgjsSvg1000" xmlns="http://www.w3.org/2000/svg" version="1.1" xmlns:xlink="http://www.w3.org/1999/xlink" xmlns:svgjs="http://svgjs.com/svgjs" width="71.19999999999999" height="71.20000000000005" viewBox="0 0 71.19999999999999 71.20000000000005"><title>icon</title><desc>Created with Avocode.</desc><defs id="SvgjsDefs1001"></defs><path id="SvgjsPath1007" d="M95 565C95 545.67003 110.67003 530 130 530C149.32997 530 165 545.67003 165 565C165 584.32997 149.32997 600 130 600C110.67003 600 95 584.32997 95 565Z " fill-opacity="0" fill="#ffffff" stroke-dashoffset="0" stroke-linejoin="miter" stroke-linecap="butt" stroke-opacity="1" stroke="#2d2d2d" stroke-miterlimit="50" stroke-width="1.2" transform="matrix(1,0,0,1,-94.4,-529.4)"></path><path id="SvgjsPath1008" d="M117 556C117 554.89543 117.89543 554 119 554H145C146.10457 554 147 554.89543 147 556V574C147 575.10457 146.10457 576 145 576H119C117.89543 576 117 575.10457 117 574Z " fill-opacity="0" fill="#ffffff" stroke-dashoffset="0" stroke-linejoin="miter" stroke-linecap="butt" stroke-opacity="1" stroke="#2d2d2d" stroke-miterlimit="50" stroke-width="1.2" transform="matrix(1,0,0,1,-94.4,-529.4)"></path><path id="SvgjsPath1009" d="M117 557L132 566L147 557 " fill-opacity="0" fill="#ffffff" stroke-dashoffset="0" stroke-linejoin="miter" stroke-linecap="butt" stroke-opacity="1" stroke="#2d2d2d" stroke-miterlimit="50" stroke-width="1.2" transform="matrix(1,0,0,1,-94.4,-529.4)"></path><path id="SvgjsPath1010" d="M117 564.6H107 " fill-opacity="0" fill="#ffffff" stroke-dashoffset="0" stroke-linejoin="round" stroke-linecap="round" stroke-opacity="1" stroke="#2d2d2d" stroke-miterlimit="50" stroke-width="1.200000047683716" transform="matrix(1,0,0,1,-94.4,-529.4)"></path><path id="SvgjsPath1011" d="M117 569H111 " fill-opacity="0" fill="#ffffff" stroke-dashoffset="0" stroke-linejoin="round" stroke-linecap="round" stroke-opacity="1" stroke="#2d2d2d" stroke-miterlimit="50" stroke-width="1.200000047683716" transform="matrix(1,0,0,1,-94.4,-529.4)"></path><path id="SvgjsPath1012" d="M113 561H107 " fill-opacity="0" fill="#ffffff" stroke-dashoffset="0" stroke-linejoin="round" stroke-linecap="round" stroke-opacity="1" stroke="#2d2d2d" stroke-miterlimit="50" stroke-width="1.200000047683716" transform="matrix(1,0,0,1,-94.4,-529.4)"></path></svg>