<svg id="SvgjsSvg1041" xmlns="http://www.w3.org/2000/svg" version="1.1" xmlns:xlink="http://www.w3.org/1999/xlink" xmlns:svgjs="http://svgjs.com/svgjs" width="71.19999999999982" height="71.20000000000005" viewBox="0 0 71.19999999999982 71.20000000000005"><title>icon</title><desc>Created with Avocode.</desc><defs id="SvgjsDefs1042"></defs><path id="SvgjsPath1043" d="M1063 565C1063 545.67003 1078.67003 530 1098 530C1117.32997 530 1133 545.67003 1133 565C1133 584.32997 1117.32997 600 1098 600C1078.67003 600 1063 584.32997 1063 565Z " fill-opacity="0" fill="#ffffff" stroke-dashoffset="0" stroke-linejoin="miter" stroke-linecap="butt" stroke-opacity="1" stroke="#2d2d2d" stroke-miterlimit="50" stroke-width="1.2" transform="matrix(1,0,0,1,-1062.4,-529.4)"></path><path id="SvgjsPath1044" d="M1113.84 559.87C1115.02 560.52 1115.37 562.04 1114.57 563.12L1114.04 563.82C1113.47 564.59 1113.46 565.63 1114.02 566.4000000000001L1114.53 567.1100000000001C1115.32 568.2000000000002 1114.95 569.7100000000002 1113.75 570.3400000000001L1112.96 570.7500000000001C1112.1100000000001 571.2000000000002 1111.64 572.1400000000001 1111.81 573.0700000000002L1111.95 573.9300000000002C1112.18 575.2500000000002 1111.18 576.4600000000002 1109.82 576.5100000000002L1108.9299999999998 576.5500000000002C1107.9599999999998 576.5900000000001 1107.1299999999999 577.2300000000001 1106.86 578.1500000000002L1106.61 578.9900000000002C1106.24 580.2700000000002 1104.8 580.9300000000003 1103.55 580.4000000000002L1102.74 580.0600000000002C1101.85 579.6800000000002 1100.81 579.9100000000002 1100.16 580.6200000000001L1099.5700000000002 581.2600000000001C1098.66 582.2600000000001 1097.0800000000002 582.2400000000001 1096.18 581.2400000000001L1095.6000000000001 580.5800000000002C1094.96 579.8700000000001 1093.93 579.6300000000001 1093.0400000000002 579.9900000000001L1092.2200000000003 580.3200000000002C1090.9600000000003 580.8300000000002 1089.5300000000002 580.1400000000002 1089.1700000000003 578.8600000000001L1088.9400000000003 578.0200000000001C1088.6900000000003 577.1000000000001 1087.8600000000004 576.45 1086.8900000000003 576.3900000000001L1086.0100000000002 576.3400000000001C1084.6500000000003 576.2700000000001 1083.6700000000003 575.0400000000002 1083.9100000000003 573.7300000000001L1084.0700000000004 572.8800000000001C1084.2500000000005 571.94 1083.7900000000004 571.0100000000001 1082.9500000000005 570.5500000000001L1082.1700000000005 570.1300000000001C1080.9800000000005 569.4900000000001 1080.6300000000006 567.9600000000002 1081.4300000000005 566.8900000000001L1081.9600000000005 566.19V566.19C1082.5300000000004 565.4200000000001 1082.5400000000004 564.3800000000001 1081.9800000000005 563.61L1081.4700000000005 562.9C1080.6800000000005 561.81 1081.0500000000004 560.29 1082.2500000000005 559.67L1083.0400000000004 559.25C1083.8900000000003 558.81 1084.3600000000004 557.87 1084.1900000000005 556.93L1084.0500000000004 556.0699999999999C1083.8200000000004 554.76 1084.8200000000004 553.55 1086.1800000000005 553.4899999999999L1087.0700000000006 553.4599999999999C1088.0400000000006 553.42 1088.8700000000006 552.78 1089.1400000000006 551.8599999999999L1089.3800000000006 551.0199999999999C1089.7600000000007 549.7399999999999 1091.2000000000005 549.0799999999998 1092.4500000000005 549.5999999999999L1093.2600000000004 549.9499999999999C1094.1500000000005 550.3199999999999 1095.1900000000005 550.0999999999999 1095.8400000000004 549.39L1096.4300000000003 548.74C1097.3400000000004 547.74 1098.9300000000003 547.76 1099.8200000000004 548.76L1100.4100000000003 549.42C1101.0400000000004 550.13 1102.0800000000004 550.37 1102.9700000000003 550.01L1103.7900000000002 549.68 " fill-opacity="0" fill="#ffffff" stroke-dashoffset="0" stroke-linejoin="round" stroke-linecap="round" stroke-opacity="1" stroke="#2d2d2d" stroke-miterlimit="50" stroke-width="1.2" transform="matrix(1,0,0,1,-1062.4,-529.4)"></path><path id="SvgjsPath1045" d="M1091 572.21L1112.21 551 " fill-opacity="0" fill="#ffffff" stroke-dashoffset="0" stroke-linejoin="round" stroke-linecap="round" stroke-opacity="1" stroke="#2d2d2d" stroke-miterlimit="50" stroke-width="1.2" transform="matrix(1,0,0,1,-1062.4,-529.4)"></path><path id="SvgjsPath1046" d="M1107 551H1113V557 " fill-opacity="0" fill="#ffffff" stroke-dashoffset="0" stroke-linejoin="round" stroke-linecap="round" stroke-opacity="1" stroke="#2d2d2d" stroke-miterlimit="50" stroke-width="1.2" transform="matrix(1,0,0,1,-1062.4,-529.4)"></path><path id="SvgjsPath1047" d="M1091 560C1091 557.79086 1092.34315 556 1094 556C1095.65685 556 1097 557.79086 1097 560C1097 562.20914 1095.65685 564 1094 564C1092.34315 564 1091 562.20914 1091 560Z " fill-opacity="0" fill="#ffffff" stroke-dashoffset="0" stroke-linejoin="miter" stroke-linecap="butt" stroke-opacity="1" stroke="#2d2d2d" stroke-miterlimit="50" stroke-width="1.2" transform="matrix(1,0,0,1,-1062.4,-529.4)"></path><path id="SvgjsPath1048" d="M1101 569C1101 566.79086 1102.34315 565 1104 565C1105.65685 565 1107 566.79086 1107 569C1107 571.20914 1105.65685 573 1104 573C1102.34315 573 1101 571.20914 1101 569Z " fill-opacity="0" fill="#ffffff" stroke-dashoffset="0" stroke-linejoin="miter" stroke-linecap="butt" stroke-opacity="1" stroke="#2d2d2d" stroke-miterlimit="50" stroke-width="1.2" transform="matrix(1,0,0,1,-1062.4,-529.4)"></path></svg>