<svg id="SvgjsSvg1014" xmlns="http://www.w3.org/2000/svg" version="1.1" xmlns:xlink="http://www.w3.org/1999/xlink" xmlns:svgjs="http://svgjs.com/svgjs" width="71.20000000000005" height="71.19999999999891" viewBox="0 0 71.20000000000005 71.19999999999891"><title>icon</title><desc>Created with Avocode.</desc><defs id="SvgjsDefs1015"></defs><path id="SvgjsPath1016" d="M740 4092C740 4072.67003 755.67003 4057 775 4057C794.32997 4057 810 4072.67003 810 4092C810 4111.32997 794.32997 4127 775 4127C755.67003 4127 740 4111.32997 740 4092Z " fill-opacity="0" fill="#ffffff" stroke-dashoffset="0" stroke-linejoin="miter" stroke-linecap="butt" stroke-opacity="1" stroke="#ea5d72" stroke-miterlimit="50" stroke-width="1.2" transform="matrix(1,0,0,1,-739.4,-4056.4000000000005)"></path><path id="SvgjsPath1017" d="M790.84 4086.87C792.02 4087.52 792.37 4089.04 791.57 4090.12L791.0400000000001 4090.8199999999997C790.47 4091.5899999999997 790.46 4092.6299999999997 791.0200000000001 4093.3999999999996L791.5300000000001 4094.1099999999997C792.32 4095.2 791.95 4096.71 790.7500000000001 4097.339999999999L789.9600000000002 4097.749999999999C789.1100000000001 4098.199999999999 788.6400000000001 4099.139999999999 788.8100000000002 4100.069999999999L788.9500000000002 4100.9299999999985C789.1800000000002 4102.249999999998 788.1800000000002 4103.459999999998 786.8200000000002 4103.509999999998L785.9300000000002 4103.549999999998C784.9600000000002 4103.589999999998 784.1300000000002 4104.229999999999 783.8600000000001 4105.149999999999L783.6100000000001 4105.989999999999C783.2400000000001 4107.269999999999 781.8000000000002 4107.9299999999985 780.5500000000002 4107.399999999999L779.7400000000002 4107.059999999999C778.8500000000003 4106.6799999999985 777.8100000000003 4106.909999999999 777.1600000000002 4107.619999999999L776.5700000000002 4108.259999999999C775.6600000000002 4109.259999999999 774.0800000000002 4109.239999999999 773.1800000000002 4108.239999999999L772.6000000000001 4107.579999999999C771.9600000000002 4106.869999999999 770.9300000000002 4106.629999999999 770.0400000000002 4106.989999999999L769.2200000000001 4107.319999999999C767.9600000000002 4107.829999999999 766.5300000000001 4107.1399999999985 766.1700000000002 4105.859999999999L765.9400000000002 4105.019999999999C765.6900000000002 4104.0999999999985 764.8600000000001 4103.449999999999 763.8900000000002 4103.3899999999985L763.0100000000002 4103.339999999998C761.6500000000002 4103.269999999999 760.6700000000002 4102.039999999998 760.9100000000002 4100.729999999999L761.0700000000002 4099.879999999998C761.2500000000001 4098.939999999999 760.7900000000002 4098.009999999998 759.9500000000002 4097.549999999998L759.1700000000002 4097.129999999998C757.9800000000001 4096.489999999998 757.6300000000002 4094.959999999998 758.4300000000002 4093.8899999999985L758.9600000000002 4093.1899999999987V4093.1899999999987C759.5300000000002 4092.4199999999987 759.5400000000002 4091.3799999999987 758.9800000000001 4090.6099999999988L758.4700000000001 4089.8999999999987C757.6800000000002 4088.8099999999986 758.0500000000002 4087.2899999999986 759.2500000000001 4086.6699999999987L760.0400000000001 4086.2499999999986C760.8900000000001 4085.8099999999986 761.3600000000001 4084.8699999999985 761.19 4083.9299999999985L761.0500000000001 4083.0699999999983C760.82 4081.7599999999984 761.82 4080.5499999999984 763.1800000000001 4080.4899999999984L764.07 4080.459999999998C765.0400000000001 4080.4199999999983 765.87 4079.7799999999984 766.1400000000001 4078.8599999999983L766.3800000000001 4078.019999999998C766.7600000000001 4076.739999999998 768.2000000000002 4076.079999999998 769.4500000000002 4076.599999999998L770.2600000000001 4076.949999999998C771.1500000000001 4077.319999999998 772.19 4077.099999999998 772.8400000000001 4076.389999999998L773.4300000000002 4075.739999999998C774.3400000000001 4074.739999999998 775.9300000000002 4074.759999999998 776.8200000000002 4075.759999999998L777.4100000000002 4076.419999999998C778.0400000000002 4077.129999999998 779.0800000000002 4077.3699999999976 779.9700000000001 4077.009999999998L780.7900000000002 4076.679999999998 " fill-opacity="0" fill="#ffffff" stroke-dashoffset="0" stroke-linejoin="miter" stroke-linecap="round" stroke-opacity="1" stroke="#ea5d72" stroke-miterlimit="50" stroke-width="1.2" transform="matrix(1,0,0,1,-739.4,-4056.4000000000005)"></path><path id="SvgjsPath1018" d="M768 4099.21L789.21 4078 " fill-opacity="0" fill="#ffffff" stroke-dashoffset="0" stroke-linejoin="round" stroke-linecap="round" stroke-opacity="1" stroke="#ea5d72" stroke-miterlimit="50" stroke-width="1.2" transform="matrix(1,0,0,1,-739.4,-4056.4000000000005)"></path><path id="SvgjsPath1019" d="M784 4078H790V4084 " fill-opacity="0" fill="#ffffff" stroke-dashoffset="0" stroke-linejoin="round" stroke-linecap="round" stroke-opacity="1" stroke="#ea5d72" stroke-miterlimit="50" stroke-width="1.2" transform="matrix(1,0,0,1,-739.4,-4056.4000000000005)"></path><path id="SvgjsPath1020" d="M768 4087C768 4084.79086 769.34315 4083 771 4083C772.65685 4083 774 4084.79086 774 4087C774 4089.20914 772.65685 4091 771 4091C769.34315 4091 768 4089.20914 768 4087Z " fill-opacity="0" fill="#ffffff" stroke-dashoffset="0" stroke-linejoin="miter" stroke-linecap="butt" stroke-opacity="1" stroke="#ea5d72" stroke-miterlimit="50" stroke-width="1.2" transform="matrix(1,0,0,1,-739.4,-4056.4000000000005)"></path><path id="SvgjsPath1021" d="M778 4096C778 4093.79086 779.34315 4092 781 4092C782.65685 4092 784 4093.79086 784 4096C784 4098.20914 782.65685 4100 781 4100C779.34315 4100 778 4098.20914 778 4096Z " fill-opacity="0" fill="#ffffff" stroke-dashoffset="0" stroke-linejoin="miter" stroke-linecap="butt" stroke-opacity="1" stroke="#ea5d72" stroke-miterlimit="50" stroke-width="1.2" transform="matrix(1,0,0,1,-739.4,-4056.4000000000005)"></path></svg>