<svg id="SvgjsSvg1019" xmlns="http://www.w3.org/2000/svg" version="1.1" xmlns:xlink="http://www.w3.org/1999/xlink" xmlns:svgjs="http://svgjs.com/svgjs" width="42" height="42" viewBox="0 0 42 42"><title>icon</title><desc>Created with Avocode.</desc><defs id="SvgjsDefs1020"></defs><path id="SvgjsPath1021" d="M975 4394C975 4382.95431 983.95431 4374 995 4374C1006.04569 4374 1015 4382.95431 1015 4394C1015 4405.04569 1006.04569 4414 995 4414C983.95431 4414 975 4405.04569 975 4394Z " fill-opacity="0" fill="#ffffff" stroke-dashoffset="0" stroke-linejoin="round" stroke-linecap="round" stroke-opacity="1" stroke="#2d2d2d" stroke-miterlimit="50" stroke-width="2" transform="matrix(1,0,0,1,-974,-4373)"></path><path id="SvgjsPath1022" d="M1006.87 4390.63C1007.73 4391.1 1007.98 4392.21 1007.4 4392.99L1007.02 4393.5C1006.6 4394.06 1006.59 4394.81 1007 4395.38L1007.37 4395.89C1007.95 4396.68 1007.68 4397.780000000001 1006.8100000000001 4398.240000000001L1006.23 4398.540000000001C1005.61 4398.860000000001 1005.27 4399.540000000001 1005.39 4400.220000000001L1005.5 4400.850000000001C1005.66 4401.810000000001 1004.94 4402.690000000001 1003.95 4402.730000000001L1003.3000000000001 4402.750000000002C1002.6 4402.780000000002 1001.9900000000001 4403.250000000002 1001.8000000000001 4403.910000000002L1001.6200000000001 4404.520000000001C1001.3400000000001 4405.450000000002 1000.3000000000001 4405.930000000001 999.3900000000001 4405.550000000001L998.8000000000001 4405.300000000001C998.1500000000001 4405.030000000001 997.4000000000001 4405.190000000001 996.9300000000001 4405.710000000001L996.5000000000001 4406.180000000001C995.8400000000001 4406.9000000000015 994.6900000000002 4406.890000000001 994.0400000000001 4406.160000000001L993.6100000000001 4405.680000000001C993.1500000000001 4405.160000000001 992.4000000000001 4404.990000000002 991.7500000000001 4405.250000000001L991.1500000000001 4405.490000000001C990.2400000000001 4405.860000000001 989.2 4405.360000000001 988.94 4404.43L988.7700000000001 4403.820000000001C988.5900000000001 4403.150000000001 987.9900000000001 4402.68 987.2800000000001 4402.64L986.6400000000001 4402.6C985.6500000000001 4402.55 984.94 4401.660000000001 985.1200000000001 4400.71L985.2300000000001 4400.08C985.3600000000001 4399.4 985.0300000000001 4398.72 984.4200000000002 4398.39L983.8500000000001 4398.08C982.9800000000001 4397.62 982.7300000000001 4396.51 983.3200000000002 4395.73L983.7000000000002 4395.219999999999V4395.219999999999C984.1100000000001 4394.659999999999 984.1200000000001 4393.9 983.7100000000002 4393.339999999999L983.3400000000001 4392.829999999999C982.7700000000001 4392.039999999999 983.0300000000002 4390.939999999999 983.9100000000002 4390.479999999999L984.4800000000002 4390.1799999999985C985.1000000000003 4389.859999999999 985.4400000000003 4389.169999999998 985.3200000000003 4388.489999999999L985.2100000000003 4387.869999999999C985.0500000000003 4386.909999999999 985.7800000000003 4386.029999999999 986.7700000000002 4385.989999999999L987.4100000000002 4385.969999999998C988.1100000000002 4385.939999999999 988.7200000000001 4385.469999999998 988.9200000000002 4384.809999999999L989.0900000000001 4384.199999999999C989.3700000000001 4383.259999999999 990.4100000000002 4382.779999999999 991.3200000000002 4383.159999999999L991.9100000000002 4383.409999999999C992.5600000000002 4383.689999999999 993.3100000000002 4383.519999999999 993.7900000000002 4383.009999999999L994.2200000000001 4382.539999999999C994.8800000000001 4381.8099999999995 996.0300000000001 4381.819999999999 996.6800000000002 4382.549999999999L997.1100000000001 4383.029999999999C997.5700000000002 4383.549999999999 998.3200000000002 4383.719999999998 998.9700000000001 4383.459999999999L999.5700000000002 4383.219999999999 " fill-opacity="0" fill="#ffffff" stroke-dashoffset="0" stroke-linejoin="round" stroke-linecap="round" stroke-opacity="1" stroke="#2d2d2d" stroke-miterlimit="50" stroke-width="2" transform="matrix(1,0,0,1,-974,-4373)"></path><path id="SvgjsPath1023" d="M991 4398.44L1004.44 4385 " fill-opacity="0" fill="#ffffff" stroke-dashoffset="0" stroke-linejoin="round" stroke-linecap="round" stroke-opacity="1" stroke="#2d2d2d" stroke-miterlimit="50" stroke-width="2" transform="matrix(1,0,0,1,-974,-4373)"></path><path id="SvgjsPath1024" d="M1002 4384H1005.43V4387.43 " fill-opacity="0" fill="#ffffff" stroke-dashoffset="0" stroke-linejoin="round" stroke-linecap="round" stroke-opacity="1" stroke="#2d2d2d" stroke-miterlimit="50" stroke-width="2" transform="matrix(1,0,0,1,-974,-4373)"></path><path id="SvgjsPath1025" d="M991 4389.5C991 4388.11929 991.67157 4387 992.5 4387C993.32843 4387 994 4388.11929 994 4389.5C994 4390.88071 993.32843 4392 992.5 4392C991.67157 4392 991 4390.88071 991 4389.5Z " fill-opacity="0" fill="#ffffff" stroke-dashoffset="0" stroke-linejoin="round" stroke-linecap="round" stroke-opacity="1" stroke="#2d2d2d" stroke-miterlimit="50" stroke-width="2" transform="matrix(1,0,0,1,-974,-4373)"></path><path id="SvgjsPath1026" d="M997 4398.5C997 4397.11929 997.67157 4396 998.5 4396C999.32843 4396 1000 4397.11929 1000 4398.5C1000 4399.88071 999.32843 4401 998.5 4401C997.67157 4401 997 4399.88071 997 4398.5Z " fill-opacity="0" fill="#ffffff" stroke-dashoffset="0" stroke-linejoin="round" stroke-linecap="round" stroke-opacity="1" stroke="#2d2d2d" stroke-miterlimit="50" stroke-width="2" transform="matrix(1,0,0,1,-974,-4373)"></path></svg>