<svg id="SvgjsSvg1000" xmlns="http://www.w3.org/2000/svg" version="1.1" xmlns:xlink="http://www.w3.org/1999/xlink" xmlns:svgjs="http://svgjs.com/svgjs" width="71.19999999999999" height="71.19999999999891" viewBox="0 0 71.19999999999999 71.19999999999891"><title>icon</title><desc>Created with Avocode.</desc><defs id="SvgjsDefs1001"></defs><path id="SvgjsPath1007" d="M95 4092C95 4072.67003 110.67003 4057 130 4057C149.32997 4057 165 4072.67003 165 4092C165 4111.32997 149.32997 4127 130 4127C110.67003 4127 95 4111.32997 95 4092Z " fill-opacity="0" fill="#ffffff" stroke-dashoffset="0" stroke-linejoin="miter" stroke-linecap="butt" stroke-opacity="1" stroke="#ea5d72" stroke-miterlimit="50" stroke-width="1.2" transform="matrix(1,0,0,1,-94.4,-4056.4000000000005)"></path><path id="SvgjsPath1008" d="M127.04 4105H114L115 4079V4079H145L146 4105H133 " fill-opacity="0" fill="#ffffff" stroke-dashoffset="0" stroke-linejoin="round" stroke-linecap="round" stroke-opacity="1" stroke="#ea5d72" stroke-miterlimit="50" stroke-width="1.2" transform="matrix(1,0,0,1,-94.4,-4056.4000000000005)"></path><path id="SvgjsPath1009" d="M122 4083V4077C122 4072.58 125.59 4069 130 4069C134.42 4069 138 4072.59 138 4077V4083 " fill-opacity="0" fill="#ffffff" stroke-dashoffset="0" stroke-linejoin="round" stroke-linecap="round" stroke-opacity="1" stroke="#ea5d72" stroke-miterlimit="50" stroke-width="1.2" transform="matrix(1,0,0,1,-94.4,-4056.4000000000005)"></path><path id="SvgjsPath1010" d="M120 4083C120 4084.1 120.9 4085 122 4085V4085C123.1 4085 124 4084.1 124 4083 " fill-opacity="0" fill="#ffffff" stroke-dashoffset="0" stroke-linejoin="round" stroke-linecap="round" stroke-opacity="1" stroke="#ea5d72" stroke-miterlimit="50" stroke-width="1.2" transform="matrix(1,0,0,1,-94.4,-4056.4000000000005)"></path><path id="SvgjsPath1011" d="M136 4083C136 4084.1 136.9 4085 138 4085V4085C139.1 4085 140 4084.1 140 4083 " fill-opacity="0" fill="#ffffff" stroke-dashoffset="0" stroke-linejoin="round" stroke-linecap="round" stroke-opacity="1" stroke="#ea5d72" stroke-miterlimit="50" stroke-width="1.2" transform="matrix(1,0,0,1,-94.4,-4056.4000000000005)"></path><path id="SvgjsPath1012" d="M130 4095V4113 " fill-opacity="0" fill="#ffffff" stroke-dashoffset="0" stroke-linejoin="round" stroke-linecap="round" stroke-opacity="1" stroke="#ea5d72" stroke-miterlimit="50" stroke-width="1.2" transform="matrix(1,0,0,1,-94.4,-4056.4000000000005)"></path><path id="SvgjsPath1013" d="M125 4113L130 4109V4109L135 4113 " fill-opacity="0" fill="#ffffff" stroke-dashoffset="0" stroke-linejoin="round" stroke-linecap="round" stroke-opacity="1" stroke="#ea5d72" stroke-miterlimit="50" stroke-width="1.2" transform="matrix(1,0,0,1,-94.4,-4056.4000000000005)"></path></svg>