<svg id="SvgjsSvg1024" xmlns="http://www.w3.org/2000/svg" version="1.1" xmlns:xlink="http://www.w3.org/1999/xlink" xmlns:svgjs="http://svgjs.com/svgjs" width="71.20000000000005" height="71.20000000000005" viewBox="0 0 71.20000000000005 71.20000000000005"><title>icon</title><desc>Created with Avocode.</desc><defs id="SvgjsDefs1025"></defs><path id="SvgjsPath1026" d="M740 565C740 545.67003 755.67003 530 775 530C794.32997 530 810 545.67003 810 565C810 584.32997 794.32997 600 775 600C755.67003 600 740 584.32997 740 565Z " fill-opacity="0" fill="#ffffff" stroke-dashoffset="0" stroke-linejoin="miter" stroke-linecap="butt" stroke-opacity="1" stroke="#2d2d2d" stroke-miterlimit="50" stroke-width="1.2" transform="matrix(1,0,0,1,-739.4,-529.4)"></path><path id="SvgjsPath1027" d="M757 580V555H793V580Z " fill-opacity="0" fill="#ffffff" stroke-dashoffset="0" stroke-linejoin="round" stroke-linecap="round" stroke-opacity="1" stroke="#2d2d2d" stroke-miterlimit="50" stroke-width="1.2" transform="matrix(1,0,0,1,-739.4,-529.4)"></path><path id="SvgjsPath1028" d="M757 552C757 550.89543 757.89543 550 759 550H791C792.10457 550 793 550.89543 793 552V555V555H757V555Z " fill-opacity="0" fill="#ffffff" stroke-dashoffset="0" stroke-linejoin="round" stroke-linecap="round" stroke-opacity="1" stroke="#2d2d2d" stroke-miterlimit="50" stroke-width="1.2" transform="matrix(1,0,0,1,-739.4,-529.4)"></path><path id="SvgjsPath1029" d="M760 553H761 " fill-opacity="0" fill="#ffffff" stroke-dashoffset="0" stroke-linejoin="round" stroke-linecap="round" stroke-opacity="1" stroke="#2d2d2d" stroke-miterlimit="50" stroke-width="1.200000047683716" transform="matrix(1,0,0,1,-739.4,-529.4)"></path><path id="SvgjsPath1030" d="M763 553H764 " fill-opacity="0" fill="#ffffff" stroke-dashoffset="0" stroke-linejoin="round" stroke-linecap="round" stroke-opacity="1" stroke="#2d2d2d" stroke-miterlimit="50" stroke-width="1.200000047683716" transform="matrix(1,0,0,1,-739.4,-529.4)"></path><path id="SvgjsPath1031" d="M766 553H767 " fill-opacity="0" fill="#ffffff" stroke-dashoffset="0" stroke-linejoin="round" stroke-linecap="round" stroke-opacity="1" stroke="#2d2d2d" stroke-miterlimit="50" stroke-width="1.200000047683716" transform="matrix(1,0,0,1,-739.4,-529.4)"></path><path id="SvgjsPath1032" d="M765 565.5C765 564.67157 765.67157 564 766.5 564C767.32843 564 768 564.67157 768 565.5C768 566.32843 767.32843 567 766.5 567C765.67157 567 765 566.32843 765 565.5Z " fill-opacity="0" fill="#ffffff" stroke-dashoffset="0" stroke-linejoin="round" stroke-linecap="round" stroke-opacity="1" stroke="#2d2d2d" stroke-miterlimit="50" stroke-width="1.200000047683716" transform="matrix(1,0,0,1,-739.4,-529.4)"></path><path id="SvgjsPath1033" d="M770 569.5C770 568.67157 770.67157 568 771.5 568C772.32843 568 773 568.67157 773 569.5C773 570.32843 772.32843 571 771.5 571C770.67157 571 770 570.32843 770 569.5Z " fill-opacity="0" fill="#ffffff" stroke-dashoffset="0" stroke-linejoin="round" stroke-linecap="round" stroke-opacity="1" stroke="#2d2d2d" stroke-miterlimit="50" stroke-width="1.200000047683716" transform="matrix(1,0,0,1,-739.4,-529.4)"></path><path id="SvgjsPath1034" d="M776 563.5C776 562.67157 776.67157 562 777.5 562C778.32843 562 779 562.67157 779 563.5C779 564.32843 778.32843 565 777.5 565C776.67157 565 776 564.32843 776 563.5Z " fill-opacity="0" fill="#ffffff" stroke-dashoffset="0" stroke-linejoin="round" stroke-linecap="round" stroke-opacity="1" stroke="#2d2d2d" stroke-miterlimit="50" stroke-width="1.200000047683716" transform="matrix(1,0,0,1,-739.4,-529.4)"></path><path id="SvgjsPath1035" d="M782 567.5C782 566.67157 782.67157 566 783.5 566C784.32843 566 785 566.67157 785 567.5C785 568.32843 784.32843 569 783.5 569C782.67157 569 782 568.32843 782 567.5Z " fill-opacity="0" fill="#ffffff" stroke-dashoffset="0" stroke-linejoin="round" stroke-linecap="round" stroke-opacity="1" stroke="#2d2d2d" stroke-miterlimit="50" stroke-width="1.200000047683716" transform="matrix(1,0,0,1,-739.4,-529.4)"></path><path id="SvgjsPath1036" d="M761 571.27L765.21 567 " fill-opacity="0" fill="#ffffff" stroke-dashoffset="0" stroke-linejoin="round" stroke-linecap="round" stroke-opacity="1" stroke="#2d2d2d" stroke-miterlimit="50" stroke-width="1.200000047683716" transform="matrix(1,0,0,1,-739.4,-529.4)"></path><path id="SvgjsPath1037" d="M768 567L770.47 569.05 " fill-opacity="0" fill="#ffffff" stroke-dashoffset="0" stroke-linejoin="miter" stroke-linecap="butt" stroke-opacity="1" stroke="#2d2d2d" stroke-miterlimit="50" stroke-width="1.2" transform="matrix(1,0,0,1,-739.4,-529.4)"></path><path id="SvgjsPath1038" d="M773 568.83L776.8 565 " fill-opacity="0" fill="#ffffff" stroke-dashoffset="0" stroke-linejoin="miter" stroke-linecap="butt" stroke-opacity="1" stroke="#2d2d2d" stroke-miterlimit="50" stroke-width="1.2" transform="matrix(1,0,0,1,-739.4,-529.4)"></path><path id="SvgjsPath1039" d="M779 564L782.36 566.35 " fill-opacity="0" fill="#ffffff" stroke-dashoffset="0" stroke-linejoin="miter" stroke-linecap="butt" stroke-opacity="1" stroke="#2d2d2d" stroke-miterlimit="50" stroke-width="1.2" transform="matrix(1,0,0,1,-739.4,-529.4)"></path><path id="SvgjsPath1040" d="M785 566.35L789.44 563 " fill-opacity="0" fill="#ffffff" stroke-dashoffset="0" stroke-linejoin="round" stroke-linecap="round" stroke-opacity="1" stroke="#2d2d2d" stroke-miterlimit="50" stroke-width="1.2" transform="matrix(1,0,0,1,-739.4,-529.4)"></path></svg>