<svg id="SvgjsSvg1034" xmlns="http://www.w3.org/2000/svg" version="1.1" xmlns:xlink="http://www.w3.org/1999/xlink" xmlns:svgjs="http://svgjs.com/svgjs" width="42" height="42" viewBox="0 0 42 42"><title>icon</title><desc>Created with Avocode.</desc><defs id="SvgjsDefs1035"></defs><path id="SvgjsPath1036" d="M545 4597C545 4585.95431 553.95431 4577 565 4577C576.04569 4577 585 4585.95431 585 4597C585 4608.04569 576.04569 4617 565 4617C553.95431 4617 545 4608.04569 545 4597Z " fill-opacity="0" fill="#ffffff" stroke-dashoffset="0" stroke-linejoin="round" stroke-linecap="round" stroke-opacity="1" stroke="#2d2d2d" stroke-miterlimit="50" stroke-width="2" transform="matrix(1,0,0,1,-544,-4576)"></path><path id="SvgjsPath1037" d="M556 4597C556 4592.02944 560.02944 4588 565 4588C569.97056 4588 574 4592.02944 574 4597C574 4601.97056 569.97056 4606 565 4606C560.02944 4606 556 4601.97056 556 4597Z " fill-opacity="0" fill="#ffffff" stroke-dashoffset="0" stroke-linejoin="round" stroke-linecap="round" stroke-opacity="1" stroke="#2d2d2d" stroke-miterlimit="50" stroke-width="2" transform="matrix(1,0,0,1,-544,-4576)"></path><path id="SvgjsPath1038" d="M565 4592V4597H570 " fill-opacity="0" fill="#ffffff" stroke-dashoffset="0" stroke-linejoin="round" stroke-linecap="round" stroke-opacity="1" stroke="#2d2d2d" stroke-miterlimit="50" stroke-width="2" transform="matrix(1,0,0,1,-544,-4576)"></path><path id="SvgjsPath1039" d="M565 4587V4585 " fill-opacity="0" fill="#ffffff" stroke-dashoffset="0" stroke-linejoin="round" stroke-linecap="round" stroke-opacity="1" stroke="#2d2d2d" stroke-miterlimit="50" stroke-width="2" transform="matrix(1,0,0,1,-544,-4576)"></path><path id="SvgjsPath1040" d="M563 4585H567 " fill-opacity="0" fill="#ffffff" stroke-dashoffset="0" stroke-linejoin="round" stroke-linecap="round" stroke-opacity="1" stroke="#2d2d2d" stroke-miterlimit="50" stroke-width="2" transform="matrix(1,0,0,1,-544,-4576)"></path></svg>